<svg width="36" height="36" viewBox="0 0 36 36" fill="none" xmlns="http://www.w3.org/2000/svg">
<path d="M9.36035 16.939C8.53192 16.939 7.86035 17.6105 7.86035 18.439C7.86035 19.2674 8.53192 19.939 9.36035 19.939V16.939ZM27.982 19.4996C28.5678 18.9138 28.5678 17.9641 27.982 17.3783L18.436 7.83236C17.8503 7.24658 16.9005 7.24658 16.3147 7.83236C15.7289 8.41815 15.7289 9.3679 16.3147 9.95368L24.8 18.439L16.3147 26.9242C15.7289 27.51 15.7289 28.4598 16.3147 29.0456C16.9005 29.6314 17.8503 29.6314 18.436 29.0456L27.982 19.4996ZM9.36035 19.939H26.9213V16.939H9.36035V19.939Z" fill="#EBE7E2"/>
</svg>
