<svg width="36" height="36" viewBox="0 0 36 36" fill="none" xmlns="http://www.w3.org/2000/svg">
<path d="M26.9209 19.939C27.7493 19.939 28.4209 19.2674 28.4209 18.439C28.4209 17.6105 27.7493 16.939 26.9209 16.939V19.939ZM8.29926 17.3783C7.71348 17.9641 7.71348 18.9138 8.29926 19.4996L17.8452 29.0456C18.431 29.6314 19.3807 29.6314 19.9665 29.0456C20.5523 28.4598 20.5523 27.51 19.9665 26.9242L11.4812 18.439L19.9665 9.95368C20.5523 9.3679 20.5523 8.41815 19.9665 7.83236C19.3807 7.24658 18.431 7.24658 17.8452 7.83236L8.29926 17.3783ZM26.9209 16.939L9.35992 16.939V19.939L26.9209 19.939V16.939Z" fill="#EBE7E2"/>
</svg>
