<svg width="20" height="15" viewBox="0 0 20 15" fill="none" xmlns="http://www.w3.org/2000/svg">
<path d="M1.17944 13.134C0.701151 13.4101 0.537276 14.0217 0.813418 14.5C1.08956 14.9783 1.70115 15.1422 2.17944 14.866L1.17944 13.134ZM19.9659 4.25882C20.1088 3.72535 19.7922 3.17702 19.2588 3.03407L10.5654 0.704703C10.032 0.561761 9.48363 0.878344 9.34069 1.41181C9.19775 1.94528 9.51433 2.49361 10.0478 2.63655L17.7752 4.70711L15.7047 12.4345C15.5617 12.968 15.8783 13.5163 16.4118 13.6593C16.9452 13.8022 17.4936 13.4856 17.6365 12.9522L19.9659 4.25882ZM2.17944 14.866L19.5 4.86603L18.5 3.13397L1.17944 13.134L2.17944 14.866Z" fill="#E67A37"/>
</svg>
