<svg width="30" height="31" viewBox="0 0 30 31" fill="none" xmlns="http://www.w3.org/2000/svg">
<g clip-path="url(#clip0_248_1743)">
<path d="M15 0.418945C6.7158 0.418945 0 7.13475 0 15.4189C0 22.4533 4.8432 28.3561 11.3766 29.9773V20.0029H8.2836V15.4189H11.3766V13.4437C11.3766 8.33835 13.6872 5.97195 18.6996 5.97195C19.65 5.97195 21.2898 6.15855 21.9606 6.34455V10.4995C21.6066 10.4623 20.9916 10.4437 20.2278 10.4437C17.7684 10.4437 16.818 11.3755 16.818 13.7977V15.4189H21.7176L20.8758 20.0029H16.818V30.3091C24.2454 29.4121 30.0006 23.0881 30.0006 15.4189C30 7.13475 23.2842 0.418945 15 0.418945Z" fill="white"/>
</g>
<defs>
<clipPath id="clip0_248_1743">
<rect width="30" height="30" fill="white" transform="translate(0 0.418945)"/>
</clipPath>
</defs>
</svg>
