<svg width="30" height="31" viewBox="0 0 30 31" fill="none" xmlns="http://www.w3.org/2000/svg">
<g clip-path="url(#clip0_248_1744)">
<path d="M15 3.12012C19.0078 3.12012 19.4824 3.1377 21.0586 3.20801C22.5234 3.27246 23.3145 3.51855 23.8418 3.72363C24.5391 3.99316 25.043 4.32129 25.5645 4.84277C26.0918 5.37012 26.4141 5.86816 26.6836 6.56543C26.8887 7.09277 27.1348 7.88965 27.1992 9.34863C27.2695 10.9307 27.2871 11.4053 27.2871 15.4072C27.2871 19.415 27.2695 19.8897 27.1992 21.4658C27.1348 22.9307 26.8887 23.7217 26.6836 24.249C26.4141 24.9463 26.0859 25.4502 25.5645 25.9717C25.0371 26.499 24.5391 26.8213 23.8418 27.0908C23.3145 27.2959 22.5176 27.542 21.0586 27.6064C19.4766 27.6768 19.002 27.6943 15 27.6943C10.9922 27.6943 10.5176 27.6768 8.94141 27.6064C7.47656 27.542 6.68555 27.2959 6.1582 27.0908C5.46094 26.8213 4.95703 26.4932 4.43555 25.9717C3.9082 25.4443 3.58594 24.9463 3.31641 24.249C3.11133 23.7217 2.86523 22.9248 2.80078 21.4658C2.73047 19.8838 2.71289 19.4092 2.71289 15.4072C2.71289 11.3994 2.73047 10.9248 2.80078 9.34863C2.86523 7.88379 3.11133 7.09277 3.31641 6.56543C3.58594 5.86816 3.91406 5.36426 4.43555 4.84277C4.96289 4.31543 5.46094 3.99316 6.1582 3.72363C6.68555 3.51855 7.48242 3.27246 8.94141 3.20801C10.5176 3.1377 10.9922 3.12012 15 3.12012ZM15 0.418945C10.9277 0.418945 10.418 0.436523 8.81836 0.506836C7.22461 0.577148 6.12891 0.834961 5.17969 1.2041C4.18945 1.59082 3.35156 2.10059 2.51953 2.93848C1.68164 3.77051 1.17188 4.6084 0.785156 5.59277C0.416016 6.54785 0.158203 7.63769 0.0878906 9.23145C0.0175781 10.8369 0 11.3467 0 15.4189C0 19.4912 0.0175781 20.001 0.0878906 21.6006C0.158203 23.1943 0.416016 24.29 0.785156 25.2393C1.17188 26.2295 1.68164 27.0674 2.51953 27.8994C3.35156 28.7314 4.18945 29.2471 5.17383 29.6279C6.12891 29.9971 7.21875 30.2549 8.8125 30.3252C10.4121 30.3955 10.9219 30.4131 14.9941 30.4131C19.0664 30.4131 19.5762 30.3955 21.1758 30.3252C22.7695 30.2549 23.8652 29.9971 24.8145 29.6279C25.7988 29.2471 26.6367 28.7314 27.4688 27.8994C28.3008 27.0674 28.8164 26.2295 29.1973 25.2451C29.5664 24.29 29.8242 23.2002 29.8945 21.6064C29.9648 20.0068 29.9824 19.4971 29.9824 15.4248C29.9824 11.3525 29.9648 10.8428 29.8945 9.24316C29.8242 7.64941 29.5664 6.55371 29.1973 5.60449C28.8281 4.6084 28.3184 3.77051 27.4805 2.93848C26.6484 2.10645 25.8105 1.59082 24.8262 1.20996C23.8711 0.84082 22.7813 0.583008 21.1875 0.512695C19.582 0.436523 19.0723 0.418945 15 0.418945Z" fill="white"/>
<path d="M15 7.71387C10.7461 7.71387 7.29492 11.165 7.29492 15.4189C7.29492 19.6729 10.7461 23.124 15 23.124C19.2539 23.124 22.7051 19.6729 22.7051 15.4189C22.7051 11.165 19.2539 7.71387 15 7.71387ZM15 20.417C12.2402 20.417 10.002 18.1787 10.002 15.4189C10.002 12.6592 12.2402 10.4209 15 10.4209C17.7598 10.4209 19.998 12.6592 19.998 15.4189C19.998 18.1787 17.7598 20.417 15 20.417Z" fill="white"/>
<path d="M24.8086 7.40918C24.8086 8.40528 24 9.20801 23.0098 9.20801C22.0137 9.20801 21.2109 8.39942 21.2109 7.40918C21.2109 6.41309 22.0195 5.61035 23.0098 5.61035C24 5.61035 24.8086 6.41895 24.8086 7.40918Z" fill="white"/>
</g>
<defs>
<clipPath id="clip0_248_1744">
<rect width="30" height="30" fill="white" transform="translate(0 0.418945)"/>
</clipPath>
</defs>
</svg>
