<?xml version="1.0" encoding="UTF-8"?><svg id="Layer_2" xmlns="http://www.w3.org/2000/svg" viewBox="0 0 737.01 138.19"><defs><style>.cls-1,.cls-2,.cls-3,.cls-4,.cls-5,.cls-6{fill:none;}.cls-1,.cls-7,.cls-8,.cls-9{stroke-width:0px;}.cls-2{stroke-linejoin:round;stroke-width:1.45px;}.cls-2,.cls-3,.cls-4,.cls-5,.cls-6{stroke:#231f20;}.cls-3{stroke-width:2.54px;}.cls-4{stroke-width:.73px;}.cls-5{stroke-linecap:round;}.cls-5,.cls-6{stroke-width:1.09px;}.cls-7{fill:#363639;}.cls-8{fill:#231f20;}.cls-9{fill:#fff;}</style></defs><g id="Layer_2-2"><rect class="cls-8" y="112.9" width="737.01" height="25.29"/><rect class="cls-8" x="344.84" y="36.33" width="2.43" height="3.01"/><rect class="cls-8" x="351.65" y="52.14" width="2.43" height="3.01" transform="translate(65.42 265.23) rotate(-45)"/><polygon class="cls-8" points="128.26 86.58 128.26 87.37 136.53 98.52 136.53 88.58 136.15 88.24 134.25 88.1 134.25 86.58 141.48 86.58 141.48 88.1 139.68 88.24 139.27 88.58 139.27 103.81 135.5 103.81 125.91 90.94 125.91 101.77 126.25 102.15 128.19 102.29 128.19 103.81 120.96 103.81 120.96 102.29 122.79 102.15 123.17 101.77 123.17 88.51 122.9 88.24 120.96 88.1 120.96 86.58 128.26 86.58"/><path class="cls-8" d="M162.87,95.23c0,5.19-4.29,9-10.18,9s-10.18-3.7-10.18-9.07,4.08-9,10.24-9c5.82,0,10.11,3.84,10.11,9.07M147.51,95.13c0,4.29,2.08,7.17,5.19,7.17s5.19-2.8,5.19-6.99c0-4.4-2.08-7.2-5.26-7.2s-5.12,2.84-5.12,7.03"/><path class="cls-8" d="M172.88,86.58c4.64,0,7.13,1.52,7.13,4.43,0,2.32-1.56,3.77-4.64,4.4,2.15.45,2.94,1.28,3.98,4.15.9,2.39,1.32,2.7,3.6,2.7h.62v1.49c-2.18.24-2.32.24-2.98.24-1.59,0-2.98-.38-3.91-1.14-.87-.66-1.32-1.38-1.94-3.22-.83-2.56-1.76-3.29-4.46-3.29v5.54l.35.28,1.87.14v1.52h-8.93v-1.52l1.9-.14.31-.28v-13.36l-.31-.28-1.9-.14v-1.52h9.31ZM170.28,94.64c.24.03.42.03.76.03,2.94,0,4.29-1,4.29-3.18s-1.35-3.18-4.01-3.18h-1.04v6.33Z"/><polygon class="cls-8" points="199.63 86.58 199.63 91.35 197 91.35 196.48 88.51 196.2 88.31 193.12 88.31 193.12 101.88 193.47 102.15 195.51 102.29 195.51 103.81 186.2 103.81 186.2 102.29 188.28 102.15 188.62 101.88 188.62 88.31 185.54 88.31 185.27 88.51 184.78 91.35 182.15 91.35 182.15 86.58 199.63 86.58"/><polygon class="cls-8" points="209.77 86.58 209.77 88.1 207.83 88.24 207.49 88.51 207.49 93.98 214.34 93.98 214.34 88.51 214.03 88.24 212.09 88.1 212.09 86.58 221.05 86.58 221.05 88.1 219.19 88.24 218.84 88.51 218.84 101.88 219.19 102.15 221.05 102.29 221.05 103.81 212.09 103.81 212.09 102.29 214.03 102.15 214.34 101.88 214.34 95.82 207.49 95.82 207.49 101.88 207.83 102.15 209.77 102.29 209.77 103.81 200.77 103.81 200.77 102.29 202.64 102.15 202.99 101.88 202.99 88.51 202.64 88.24 200.77 88.1 200.77 86.58 209.77 86.58"/><path class="cls-8" d="M243.27,98.34c.9-1.21,1.07-1.56,1.35-2.49l-.28-.35-1.63-.24v-1.42h6.71v1.42l-2.11.35c-.76,1.83-1.45,2.98-2.56,4.12l2.49,2.42,2.56.14v1.52h-6.75v-.73l-.97-1c-2.01,1.45-3.84,2.08-6.06,2.08-3.74,0-6.44-2.18-6.44-5.16,0-2.15,1.28-3.56,4.01-4.43-1.7-1.14-2.6-2.49-2.6-3.95,0-2.63,2.67-4.46,6.4-4.46s5.95,1.66,5.95,4.19c0,1.94-1.35,3.29-4.26,4.19l4.15,3.81ZM235.14,95.75c-.9.69-1.21,1.35-1.21,2.39,0,2.11,1.66,3.63,3.98,3.63,1.07,0,1.83-.24,2.77-.97l-5.54-5.05ZM239.36,90.38c0-1.56-.8-2.46-2.11-2.46-1.21,0-2.04.8-2.04,1.94s.55,1.9,2.42,3.5c1.25-.83,1.73-1.66,1.73-2.98"/><polygon class="cls-8" points="263.21 86.58 263.21 88.1 261.34 88.24 261.2 88.51 264.14 97.96 268.06 86.58 271.55 86.58 275.57 98.21 278.34 88.51 278.13 88.24 276.09 88.1 276.09 86.58 283.08 86.58 283.08 88.1 281.17 88.34 276.71 103.81 273.39 103.81 269.09 91.59 264.91 103.81 261.58 103.81 256.81 88.34 254.94 88.1 254.94 86.58 263.21 86.58"/><polygon class="cls-8" points="299.31 86.58 299.31 90.83 296.68 90.83 296.23 88.51 295.99 88.31 290.72 88.31 290.72 94.02 293.98 94.02 294.26 93.81 294.53 91.8 296.85 91.8 296.85 97.96 294.53 97.96 294.26 95.96 293.98 95.75 290.72 95.75 290.72 102.08 296.92 102.08 297.16 101.81 297.72 99 300.24 99 300.24 103.81 284.01 103.81 284.01 102.29 285.88 102.15 286.23 101.88 286.23 88.51 285.91 88.24 284.01 88.1 284.01 86.58 299.31 86.58"/><path class="cls-8" d="M315.61,91.49h-2.7l-.55-2.73-.28-.31c-.52-.17-1.11-.28-1.87-.28-1.97,0-3.18.87-3.18,2.25,0,.87.45,1.56,1.42,2.18.59.41.87.52,3.43,1.56,2.91,1.14,4.29,2.66,4.29,4.71,0,3.15-3.25,5.3-8,5.3-1.97,0-3.84-.28-5.99-.93v-4.81h2.84l.52,3.18.28.28c.93.28,1.49.35,2.32.35,2.18,0,3.46-.86,3.46-2.28s-.76-2.08-3.36-3.22c-4.33-1.94-5.61-3.12-5.61-5.29,0-3.08,2.91-5.19,7.2-5.19,1.97,0,3.67.28,5.78.93v4.33Z"/><polygon class="cls-8" points="334.99 86.58 334.99 91.35 332.36 91.35 331.84 88.51 331.57 88.31 328.49 88.31 328.49 101.88 328.83 102.15 330.87 102.29 330.87 103.81 321.56 103.81 321.56 102.29 323.64 102.15 323.99 101.88 323.99 88.31 320.91 88.31 320.63 88.51 320.14 91.35 317.51 91.35 317.51 86.58 334.99 86.58"/><polygon class="cls-8" points="351.26 86.58 351.26 87.44 355.48 98.21 359.67 87.48 359.67 86.58 368.01 86.58 368.01 88.1 365.9 88.24 365.69 88.51 365.69 101.88 365.94 102.15 368.01 102.29 368.01 103.81 359.32 103.81 359.32 102.29 361.23 102.15 361.4 101.88 361.4 89.93 355.93 103.81 353.34 103.81 348.01 90.07 348.01 101.77 348.32 102.15 350.22 102.29 350.22 103.81 343.06 103.81 343.06 102.29 344.96 102.15 345.27 101.77 345.27 88.51 345.06 88.24 343.06 88.1 343.06 86.58 351.26 86.58"/><polygon class="cls-8" points="385.21 86.58 385.21 90.83 382.58 90.83 382.13 88.51 381.89 88.31 376.63 88.31 376.63 94.02 379.88 94.02 380.16 93.81 380.44 91.8 382.76 91.8 382.76 97.96 380.44 97.96 380.16 95.96 379.88 95.75 376.63 95.75 376.63 102.08 382.83 102.08 383.07 101.81 383.62 99 386.15 99 386.15 103.81 369.92 103.81 369.92 102.29 371.78 102.15 372.13 101.88 372.13 88.51 371.82 88.24 369.92 88.1 369.92 86.58 385.21 86.58"/><polygon class="cls-8" points="397.47 86.58 397.47 88.1 395.56 88.24 395.22 88.51 395.22 102.05 400.27 102.05 400.51 101.81 401 98.59 403.73 98.59 403.73 103.81 388.5 103.81 388.5 102.29 390.37 102.15 390.72 101.88 390.72 88.51 390.44 88.24 388.5 88.1 388.5 86.58 397.47 86.58"/><path class="cls-8" d="M414.43,86.58c4.43,0,6.82,1.42,6.82,4.08,0,1.9-1.18,3.12-3.7,3.88,3.08.24,4.78,1.73,4.78,4.19,0,3.22-2.8,5.09-7.65,5.09h-9.45v-1.52l1.9-.14.31-.28v-13.36l-.31-.28-1.9-.14v-1.52h9.21ZM412.52,94.05c2.77,0,4.05-.93,4.05-3.01,0-1.94-1.18-2.8-3.81-2.8-.31,0-.45,0-.83.04v5.78h.59ZM411.93,102.05c.42.04.62.04,1.04.04,3.36,0,4.67-.9,4.67-3.15s-1.32-3.18-3.98-3.18c-.31,0-.62,0-1.73.07v6.23Z"/><path class="cls-8" d="M444.37,95.23c0,5.19-4.29,9-10.18,9s-10.17-3.7-10.17-9.07,4.08-9,10.24-9c5.81,0,10.11,3.84,10.11,9.07M429,95.13c0,4.29,2.08,7.17,5.19,7.17s5.19-2.8,5.19-6.99c0-4.4-2.08-7.2-5.26-7.2s-5.12,2.84-5.12,7.03"/><path class="cls-8" d="M453.68,86.58v1.52l-1.94.14-.28.28v9c0,3.29,1.21,4.57,4.36,4.57s4.19-1.35,4.19-4.81v-8.76l-.31-.28-1.97-.14v-1.52h7.27v1.52l-1.9.14-.31.28v9.04c0,4.71-2.39,6.82-7.75,6.82-3.36,0-5.71-.8-6.96-2.39-.83-1.07-1.11-2.18-1.11-4.57v-8.9l-.28-.28-1.94-.14v-1.52h8.93Z"/><path class="cls-8" d="M475.55,86.58c4.64,0,7.13,1.52,7.13,4.43,0,2.32-1.56,3.77-4.64,4.4,2.15.45,2.94,1.28,3.98,4.15.9,2.39,1.32,2.7,3.6,2.7h.62v1.49c-2.18.24-2.32.24-2.98.24-1.59,0-2.98-.38-3.91-1.14-.86-.66-1.31-1.38-1.94-3.22-.83-2.56-1.77-3.29-4.46-3.29v5.54l.35.28,1.87.14v1.52h-8.93v-1.52l1.9-.14.31-.28v-13.36l-.31-.28-1.9-.14v-1.52h9.31ZM472.95,94.64c.24.03.42.03.76.03,2.94,0,4.29-1,4.29-3.18s-1.35-3.18-4.01-3.18h-1.04v6.33Z"/><polygon class="cls-8" points="493.48 86.58 493.48 87.37 501.75 98.52 501.75 88.58 501.37 88.24 499.47 88.1 499.47 86.58 506.7 86.58 506.7 88.1 504.9 88.24 504.49 88.58 504.49 103.81 500.71 103.81 491.13 90.94 491.13 101.77 491.47 102.15 493.41 102.29 493.41 103.81 486.18 103.81 486.18 102.29 488.01 102.15 488.39 101.77 488.39 88.51 488.11 88.24 486.18 88.1 486.18 86.58 493.48 86.58"/><polygon class="cls-8" points="523.52 86.58 523.52 90.83 520.89 90.83 520.44 88.51 520.2 88.31 514.94 88.31 514.94 94.02 518.19 94.02 518.47 93.81 518.75 91.8 521.06 91.8 521.06 97.96 518.75 97.96 518.47 95.96 518.19 95.75 514.94 95.75 514.94 102.08 521.13 102.08 521.38 101.81 521.93 99 524.46 99 524.46 103.81 508.22 103.81 508.22 102.29 510.09 102.15 510.44 101.88 510.44 88.51 510.13 88.24 508.22 88.1 508.22 86.58 523.52 86.58"/><polygon class="cls-8" points="540.83 86.58 540.83 87.37 549.1 98.52 549.1 88.58 548.72 88.24 546.81 88.1 546.81 86.58 554.05 86.58 554.05 88.1 552.25 88.24 551.83 88.58 551.83 103.81 548.06 103.81 538.47 90.94 538.47 101.77 538.82 102.15 540.76 102.29 540.76 103.81 533.52 103.81 533.52 102.29 535.36 102.15 535.74 101.77 535.74 88.51 535.46 88.24 533.52 88.1 533.52 86.58 540.83 86.58"/><polygon class="cls-8" points="571.04 86.58 571.04 90.83 568.41 90.83 567.96 88.51 567.72 88.31 562.46 88.31 562.46 94.02 565.71 94.02 565.99 93.81 566.27 91.8 568.58 91.8 568.58 97.96 566.27 97.96 565.99 95.96 565.71 95.75 562.46 95.75 562.46 102.08 568.65 102.08 568.9 101.81 569.45 99 571.98 99 571.98 103.81 555.74 103.81 555.74 102.29 557.61 102.15 557.96 101.88 557.96 88.51 557.65 88.24 555.74 88.1 555.74 86.58 571.04 86.58"/><polygon class="cls-8" points="580.7 86.58 580.7 88.1 578.83 88.24 578.69 88.51 581.63 97.96 585.55 86.58 589.04 86.58 593.05 98.21 595.82 88.51 595.62 88.24 593.57 88.1 593.57 86.58 600.57 86.58 600.57 88.1 598.66 88.34 594.2 103.81 590.88 103.81 586.58 91.59 582.39 103.81 579.07 103.81 574.3 88.34 572.43 88.1 572.43 86.58 580.7 86.58"/><path class="cls-8" d="M613.61,91.49h-2.7l-.55-2.73-.28-.31c-.52-.17-1.11-.28-1.87-.28-1.97,0-3.18.87-3.18,2.25,0,.87.45,1.56,1.42,2.18.59.41.86.52,3.43,1.56,2.91,1.14,4.29,2.66,4.29,4.71,0,3.15-3.25,5.3-7.99,5.3-1.97,0-3.84-.28-5.99-.93v-4.81h2.84l.52,3.18.28.28c.93.28,1.49.35,2.32.35,2.18,0,3.46-.86,3.46-2.28s-.76-2.08-3.36-3.22c-4.33-1.94-5.61-3.12-5.61-5.29,0-3.08,2.91-5.19,7.2-5.19,1.97,0,3.67.28,5.78.93v4.33Z"/><path class="cls-3" d="M392.73,37.81c0,13.48-10.93,24.41-24.41,24.41s-24.41-10.93-24.41-24.41,10.93-24.41,24.41-24.41,24.41,10.93,24.41,24.41Z"/><path class="cls-9" d="M389.28,37.81c0,11.57-9.38,20.95-20.96,20.95s-20.96-9.38-20.96-20.95,9.38-20.95,20.96-20.95,20.96,9.38,20.96,20.95"/><path class="cls-6" d="M389.28,37.81c0,11.57-9.38,20.95-20.96,20.95s-20.96-9.38-20.96-20.95,9.38-20.95,20.96-20.95,20.96,9.38,20.96,20.95Z"/><rect class="cls-8" x="366.84" y="14.29" width="3.01" height="2.43"/><rect class="cls-8" x="366.84" y="58.81" width="3.01" height="2.43"/><rect class="cls-8" x="351.53" y="52.86" width="2.43" height="1.55" transform="translate(65.39 265.14) rotate(-45)"/><rect class="cls-8" x="371.13" y="15.19" width="2.43" height="1.55" transform="translate(284.03 378.03) rotate(-78.75)"/><rect class="cls-8" x="374.3" y="16.06" width="2.43" height="1.55" transform="translate(231.97 364.24) rotate(-70.12)"/><rect class="cls-8" x="377.31" y="17.39" width="2.43" height="1.55" transform="translate(178.34 339.94) rotate(-60.86)"/><rect class="cls-8" x="380.19" y="18.99" width="2.43" height="1.55" transform="translate(146.24 320.69) rotate(-54.96)"/><rect class="cls-8" x="382.95" y="20.86" width="2.43" height="3.01" transform="translate(89.61 269.99) rotate(-43.38)"/><rect class="cls-8" x="385.39" y="24.39" width="2.43" height="1.55" transform="translate(48.58 214.47) rotate(-32.98)"/><polygon class="cls-8" points="387.41 29.26 386.77 27.84 388.98 26.84 389.63 28.25 387.41 29.26"/><rect class="cls-8" x="388.13" y="30.36" width="2.43" height="1.55" transform="translate(5.44 103.07) rotate(-15.18)"/><rect class="cls-8" x="388.99" y="33.53" width="2.43" height="1.55" transform="translate(-.42 63.42) rotate(-9.29)"/><rect class="cls-8" x="389.37" y="36.33" width="2.43" height="3.01"/><rect class="cls-8" x="351.19" y="20.76" width="3.01" height="2.43" transform="translate(87.77 255.83) rotate(-45)"/><rect class="cls-8" x="382.68" y="52.24" width="3.01" height="2.43" transform="translate(74.73 287.32) rotate(-45)"/><rect class="cls-8" x="389.38" y="40.3" width="1.55" height="2.43" transform="translate(279.19 417.86) rotate(-79.65)"/><rect class="cls-8" x="388.57" y="43.49" width="1.55" height="2.43" transform="translate(220.92 398.57) rotate(-71.1)"/><rect class="cls-8" x="387.28" y="46.52" width="1.55" height="2.43" transform="translate(162.98 367.43) rotate(-61.87)"/><rect class="cls-8" x="385.73" y="49.42" width="1.55" height="2.43" transform="translate(127.52 341.97) rotate(-55.83)"/><rect class="cls-8" x="380.58" y="54.7" width="1.55" height="2.43" transform="translate(35.21 225.45) rotate(-34.44)"/><rect class="cls-8" x="377.74" y="56.37" width="1.55" height="2.43" transform="translate(12.77 170.82) rotate(-25.85)"/><rect class="cls-8" x="374.68" y="57.59" width="1.55" height="2.43" transform="translate(-1.09 110.17) rotate(-16.67)"/><rect class="cls-8" x="371.53" y="58.54" width="1.55" height="2.43" transform="translate(-4.63 69.89) rotate(-10.66)"/><rect class="cls-8" x="363.72" y="14.63" width="1.55" height="2.43" transform="translate(3.98 71.87) rotate(-11.32)"/><rect class="cls-8" x="360.54" y="15.5" width="1.55" height="2.43" transform="translate(15.94 124.15) rotate(-19.93)"/><rect class="cls-8" x="357.53" y="16.83" width="1.55" height="2.43" transform="translate(36.61 176.86) rotate(-29.16)"/><rect class="cls-8" x="354.65" y="18.43" width="1.55" height="2.43" transform="translate(52.91 207.25) rotate(-34.97)"/><rect class="cls-8" x="349.27" y="23.65" width="1.55" height="2.43" transform="translate(138.67 304.99) rotate(-57.03)"/><rect class="cls-8" x="347.67" y="26.53" width="1.55" height="2.43" transform="translate(179.15 333.56) rotate(-65.58)"/><rect class="cls-8" x="346.53" y="29.62" width="1.55" height="2.43" transform="translate(226.69 357.98) rotate(-74.84)"/><rect class="cls-8" x="345.67" y="32.79" width="1.55" height="2.43" transform="translate(257.55 370.57) rotate(-80.81)"/><rect class="cls-8" x="345.16" y="40.74" width="2.43" height="1.55" transform="translate(-1.82 62.94) rotate(-10.36)"/><rect class="cls-8" x="345.97" y="43.93" width="2.43" height="1.55" transform="translate(4.24 114.89) rotate(-18.9)"/><rect class="cls-8" x="347.26" y="46.96" width="2.43" height="1.55" transform="translate(18.67 169.96) rotate(-28.13)"/><rect class="cls-8" x="348.81" y="49.86" width="2.43" height="1.55" transform="translate(31.83 205.01) rotate(-34.11)"/><rect class="cls-8" x="354.38" y="55.26" width="2.43" height="1.55" transform="translate(108.48 317.81) rotate(-55.61)"/><rect class="cls-8" x="357.22" y="56.93" width="2.43" height="1.55" transform="translate(150.37 355.22) rotate(-64.18)"/><rect class="cls-8" x="360.28" y="58.15" width="2.43" height="1.55" transform="translate(201.75 388.52) rotate(-73.4)"/><rect class="cls-8" x="363.43" y="59.1" width="2.43" height="1.55" transform="translate(237.94 407) rotate(-79.27)"/><polygon class="cls-4" points="266.54 66.54 257.56 66.54 257.56 64.87 266.54 64.87 273.04 64.87 479.11 64.87 479.11 66.54 273.04 66.54 266.54 66.54"/><polygon class="cls-4" points="272.59 76.64 264.14 76.64 264.14 75.08 272.59 75.08 278.71 75.08 472.54 75.08 472.54 76.64 278.71 76.64 272.59 76.64"/><polygon class="cls-8" points="438.19 78.26 437.8 78.26 437.8 76.69 438.19 76.69 438.47 76.69 447.48 76.69 447.48 78.26 438.47 78.26 438.19 78.26"/><polygon class="cls-4" points="438.19 78.26 437.8 78.26 437.8 76.69 438.19 76.69 438.47 76.69 447.48 76.69 447.48 78.26 438.47 78.26 438.19 78.26"/><polygon class="cls-8" points="455.12 78.26 454.73 78.26 454.73 76.69 455.12 76.69 455.4 76.69 464.41 76.69 464.41 78.26 455.4 78.26 455.12 78.26"/><polygon class="cls-4" points="455.12 78.26 454.73 78.26 454.73 76.69 455.12 76.69 455.4 76.69 464.41 76.69 464.41 78.26 455.4 78.26 455.12 78.26"/><polygon class="cls-8" points="421.18 78.26 420.79 78.26 420.79 76.69 421.18 76.69 421.46 76.69 430.46 76.69 430.46 78.26 421.46 78.26 421.18 78.26"/><polygon class="cls-4" points="421.18 78.26 420.79 78.26 420.79 76.69 421.18 76.69 421.46 76.69 430.46 76.69 430.46 78.26 421.46 78.26 421.18 78.26"/><polygon class="cls-8" points="404.32 78.26 403.92 78.26 403.92 76.69 404.32 76.69 404.6 76.69 413.6 76.69 413.6 78.26 404.6 78.26 404.32 78.26"/><polygon class="cls-4" points="404.32 78.26 403.92 78.26 403.92 76.69 404.32 76.69 404.6 76.69 413.6 76.69 413.6 78.26 404.6 78.26 404.32 78.26"/><polygon class="cls-8" points="387.46 78.26 387.06 78.26 387.06 76.69 387.46 76.69 387.74 76.69 396.74 76.69 396.74 78.26 387.74 78.26 387.46 78.26"/><polygon class="cls-4" points="387.46 78.26 387.06 78.26 387.06 76.69 387.46 76.69 387.74 76.69 396.74 76.69 396.74 78.26 387.74 78.26 387.46 78.26"/><polygon class="cls-8" points="370.74 78.26 370.35 78.26 370.35 76.69 370.74 76.69 371.03 76.69 380.03 76.69 380.03 78.26 371.03 78.26 370.74 78.26"/><polygon class="cls-4" points="370.74 78.26 370.35 78.26 370.35 76.69 370.74 76.69 371.03 76.69 380.03 76.69 380.03 78.26 371.03 78.26 370.74 78.26"/><polygon class="cls-8" points="354.18 78.26 353.79 78.26 353.79 76.69 354.18 76.69 354.47 76.69 363.47 76.69 363.47 78.26 354.47 78.26 354.18 78.26"/><polygon class="cls-4" points="354.18 78.26 353.79 78.26 353.79 76.69 354.18 76.69 354.47 76.69 363.47 76.69 363.47 78.26 354.47 78.26 354.18 78.26"/><polygon class="cls-8" points="337.63 78.26 337.23 78.26 337.23 76.69 337.63 76.69 337.91 76.69 346.91 76.69 346.91 78.26 337.91 78.26 337.63 78.26"/><polygon class="cls-4" points="337.63 78.26 337.23 78.26 337.23 76.69 337.63 76.69 337.91 76.69 346.91 76.69 346.91 78.26 337.91 78.26 337.63 78.26"/><polygon class="cls-8" points="321.22 78.26 320.83 78.26 320.83 76.69 321.22 76.69 321.5 76.69 330.5 76.69 330.5 78.26 321.5 78.26 321.22 78.26"/><polygon class="cls-4" points="321.22 78.26 320.83 78.26 320.83 76.69 321.22 76.69 321.5 76.69 330.5 76.69 330.5 78.26 321.5 78.26 321.22 78.26"/><polygon class="cls-8" points="304.97 78.26 304.57 78.26 304.57 76.69 304.97 76.69 305.25 76.69 314.25 76.69 314.25 78.26 305.25 78.26 304.97 78.26"/><polygon class="cls-4" points="304.97 78.26 304.57 78.26 304.57 76.69 304.97 76.69 305.25 76.69 314.25 76.69 314.25 78.26 305.25 78.26 304.97 78.26"/><polygon class="cls-8" points="288.86 78.26 288.47 78.26 288.47 76.69 288.86 76.69 289.15 76.69 298.15 76.69 298.15 78.26 289.15 78.26 288.86 78.26"/><polygon class="cls-4" points="288.86 78.26 288.47 78.26 288.47 76.69 288.86 76.69 289.15 76.69 298.15 76.69 298.15 78.26 289.15 78.26 288.86 78.26"/><polygon class="cls-8" points="272.76 78.26 272.37 78.26 272.37 76.69 272.76 76.69 273.04 76.69 282.04 76.69 282.04 78.26 273.04 78.26 272.76 78.26"/><polygon class="cls-4" points="272.76 78.26 272.37 78.26 272.37 76.69 272.76 76.69 273.04 76.69 282.04 76.69 282.04 78.26 273.04 78.26 272.76 78.26"/><polygon class="cls-8" points="266.54 64.57 257.56 64.57 257.56 62.38 266.54 62.38 273.04 62.38 479.11 62.38 479.11 64.57 273.04 64.57 266.54 64.57"/><polygon class="cls-4" points="266.54 64.57 257.56 64.57 257.56 62.38 266.54 62.38 273.04 62.38 479.11 62.38 479.11 64.57 273.04 64.57 266.54 64.57"/><path class="cls-4" d="M258.82,66.45s-.75,6.88,5.4,6.88h208.23c6.14,0,5.4-6.88,5.4-6.88"/><path class="cls-4" d="M266.99,74.85h-2.86s-1.95.13-1.95-.76,1.95-.68,1.95-.68l2.86-.09h5.6l199.95.09s1.95-.2,1.95.68-1.95.76-1.95.76h-205.55Z"/><path class="cls-9" d="M356.73,49.71s-.25-1.83.05-4.93c.3-3.09,1.41-4.72,3.08-6.2,1.7-1.52,3.04-.35,3.47.08.43.43.47.9.67,1.4.19.49.33.86.68,1.19h0c.35.33.72.45,1.23.61.51.16.98.18,1.43.58.46.4,1.71,1.66.3,3.46-1.38,1.76-2.94,2.97-6.01,3.46-3.07.49-4.92.36-4.92.36h0Z"/><path class="cls-2" d="M356.73,49.71s-.25-1.83.05-4.93c.3-3.09,1.41-4.72,3.08-6.2,1.7-1.52,3.04-.35,3.47.08.43.43.47.9.67,1.4.19.49.33.86.68,1.19h0c.35.33.72.45,1.23.61.51.16.98.18,1.43.58.46.4,1.71,1.66.3,3.46-1.38,1.76-2.94,2.97-6.01,3.46-3.07.49-4.92.36-4.92.36h0Z"/><path class="cls-9" d="M379.89,49.71s.25-1.83-.05-4.93c-.3-3.09-1.41-4.72-3.08-6.2-1.7-1.52-3.05-.35-3.47.08-.43.43-.47.9-.66,1.4-.19.49-.34.86-.69,1.19h0c-.35.33-.72.45-1.23.61-.51.16-.98.18-1.44.58-.46.4-1.71,1.66-.3,3.46,1.38,1.76,2.93,2.97,6.01,3.46,3.07.49,4.92.36,4.92.36h0Z"/><path class="cls-2" d="M379.89,49.71s.25-1.83-.05-4.93c-.3-3.09-1.41-4.72-3.08-6.2-1.7-1.52-3.05-.35-3.47.08-.43.43-.47.9-.66,1.4-.19.49-.34.86-.69,1.19h0c-.35.33-.72.45-1.23.61-.51.16-.98.18-1.44.58-.46.4-1.71,1.66-.3,3.46,1.38,1.76,2.93,2.97,6.01,3.46,3.07.49,4.92.36,4.92.36h0Z"/><path class="cls-9" d="M356.73,25.94s-.25,1.83.05,4.93c.3,3.09,1.41,4.72,3.08,6.2,1.7,1.52,3.04.35,3.47-.08.43-.43.47-.9.67-1.4.19-.5.33-.86.68-1.19h0c.35-.32.72-.44,1.23-.61.51-.16.98-.17,1.43-.58.46-.4,1.71-1.66.3-3.46-1.38-1.76-2.94-2.97-6.01-3.46-3.07-.49-4.92-.36-4.92-.36h0Z"/><path class="cls-2" d="M356.73,25.94s-.25,1.83.05,4.93c.3,3.09,1.41,4.72,3.08,6.2,1.7,1.52,3.04.35,3.47-.08.43-.43.47-.9.67-1.4.19-.5.33-.86.68-1.19h0c.35-.32.72-.44,1.23-.61.51-.16.98-.17,1.43-.58.46-.4,1.71-1.66.3-3.46-1.38-1.76-2.94-2.97-6.01-3.46-3.07-.49-4.92-.36-4.92-.36h0Z"/><path class="cls-9" d="M379.91,25.96s.24,1.84-.07,4.93c-.32,3.09-1.44,4.71-3.12,6.19-1.71,1.51-3.05.33-3.47-.1-.43-.43-.47-.9-.66-1.4-.19-.5-.33-.86-.68-1.19h0c-.35-.32-.72-.45-1.23-.61-.51-.16-.98-.18-1.43-.58-.45-.4-1.7-1.67-.28-3.46,1.39-1.75,2.95-2.96,6.02-3.43,3.07-.48,4.92-.33,4.92-.33h0Z"/><path class="cls-2" d="M379.91,25.96s.24,1.84-.07,4.93c-.32,3.09-1.44,4.71-3.12,6.19-1.71,1.51-3.05.33-3.47-.1-.43-.43-.47-.9-.66-1.4-.19-.5-.33-.86-.68-1.19h0c-.35-.32-.72-.45-1.23-.61-.51-.16-.98-.18-1.43-.58-.45-.4-1.7-1.67-.28-3.46,1.39-1.75,2.95-2.96,6.02-3.43,3.07-.48,4.92-.33,4.92-.33h0Z"/><polyline class="cls-5" points="364.17 13.65 364.17 6.13 364.17 3.18"/><path class="cls-7" d="M363.95,5.63s-.55-1.09-.91-1.27"/><path class="cls-5" d="M363.95,5.63s-.55-1.09-.91-1.27"/><path class="cls-5" d="M364.17,5.99s-.86-.95-1.54-.59c-.68.36-1.04.68-.82,1.13.23.45,1,.45,1.05.05"/><path class="cls-7" d="M364.42,5.63s.54-1.09.91-1.27"/><path class="cls-5" d="M364.42,5.63s.54-1.09.91-1.27"/><path class="cls-5" d="M364.2,5.99s.86-.95,1.54-.59c.68.36,1.04.68.82,1.13-.23.45-1,.45-1.04.05"/><polyline class="cls-5" points="372.43 13.65 372.43 6.13 372.43 3.18"/><path class="cls-7" d="M372.2,5.63s-.55-1.09-.91-1.27"/><path class="cls-5" d="M372.2,5.63s-.55-1.09-.91-1.27"/><path class="cls-5" d="M372.43,5.99s-.86-.95-1.54-.59c-.68.36-1.05.68-.82,1.13.22.45,1,.45,1.04.05"/><path class="cls-7" d="M372.68,5.63s.54-1.09.91-1.27"/><path class="cls-5" d="M372.68,5.63s.54-1.09.91-1.27"/><path class="cls-5" d="M372.46,5.99s.86-.95,1.54-.59c.68.36,1.04.68.82,1.13-.23.45-1,.45-1.04.05"/><polyline class="cls-5" points="379.82 16.56 379.82 10.12 379.82 7.17"/><path class="cls-7" d="M379.6,9.62s-.54-1.09-.91-1.27"/><path class="cls-5" d="M379.6,9.62s-.54-1.09-.91-1.27"/><path class="cls-5" d="M379.82,9.98s-.86-.95-1.54-.59c-.68.36-1.04.68-.82,1.13.23.45,1,.45,1.04.05"/><path class="cls-7" d="M380.07,9.62s.54-1.09.91-1.27"/><path class="cls-5" d="M380.07,9.62s.54-1.09.91-1.27"/><path class="cls-5" d="M379.85,9.98s.86-.95,1.54-.59c.68.36,1.04.68.82,1.13-.23.45-1,.45-1.04.05"/><polyline class="cls-5" points="356.69 16.56 356.69 10.12 356.69 7.17"/><path class="cls-7" d="M356.46,9.62s-.55-1.09-.91-1.27"/><path class="cls-5" d="M356.46,9.62s-.55-1.09-.91-1.27"/><path class="cls-5" d="M356.69,9.98s-.86-.95-1.54-.59c-.68.36-1.04.68-.82,1.13.23.45,1,.45,1.04.05"/><path class="cls-7" d="M356.94,9.62s.54-1.09.91-1.27"/><path class="cls-5" d="M356.94,9.62s.54-1.09.91-1.27"/><path class="cls-5" d="M356.71,9.98s.86-.95,1.54-.59c.68.36,1.05.68.82,1.13-.23.45-1,.45-1.04.05"/><line class="cls-5" x1="364.22" y1="9.75" x2="372.25" y2="9.75"/><line class="cls-7" x1="372.39" y1="9.8" x2="379.82" y2="13.79"/><line class="cls-5" x1="372.39" y1="9.8" x2="379.82" y2="13.79"/><line class="cls-7" x1="356.96" y1="13.79" x2="364.4" y2="9.8"/><line class="cls-5" x1="356.96" y1="13.79" x2="364.4" y2="9.8"/><path class="cls-8" d="M181.5,24.96c-4.7.26-6.53,1.48-6.97,5.4-.26,2.7-.78,6.79-.78,14.54v34.56h-4.18l-36.22-43.44h-.26v19.59c0,7.66.43,11.49.7,14.1.44,3.92,1.92,5.48,8.36,5.83v3.05h-21.33v-3.05c4.88-.35,6.88-1.83,7.23-5.49.35-2.96.87-6.79.87-14.45v-18.2c0-5.66-.09-7.23-1.74-9.32-1.65-2.09-3.57-2.79-7.31-3.13v-2.96h16.11l33.34,38.22h.26v-15.32c0-7.75-.44-11.84-.7-14.36-.43-3.74-2.18-5.22-8.62-5.57v-2.96h21.24v2.96Z"/><path class="cls-8" d="M266.56,25.05c-5.83.87-7.23,2.09-9.66,9.32-1.92,5.66-7.05,20.81-14.36,45.18h-4.53c-4.79-12.97-9.4-25.42-14.28-38.65h-.17c-4.44,13.14-8.88,26.12-13.06,38.65h-4.53c-4.79-15.67-9.05-30.38-13.93-45.79-2.09-6.79-3.57-8.01-8.71-8.71v-3.05h25.68v3.05c-6.53.78-6.62,2-5.4,6.44,2.87,10.19,5.83,20.37,8.79,29.95h.17c4.18-12.36,8.53-25.51,12.54-38.92h4.18c4.88,13.23,9.84,26.55,14.62,39.26h.26c3.31-10.71,6.88-24.29,8.1-29.43,1.22-5.22.87-6.7-6.18-7.31v-3.05h20.46v3.05Z"/><path class="cls-8" d="M530.25,78.59v-3.05c6.53-.7,6.96-1.31,6.88-9.32l-.17-33.52h-.35l-19.33,45.27h-2.35l-17.85-44.4h-.35l-1.04,22.72c-.43,7.23-.35,11.32,0,14.1.35,3.83,2,4.61,7.83,5.14v3.05h-20.98v-3.05c4.96-.43,6.53-1.91,7.14-5.05.52-2.7,1.13-7.31,1.83-16.45l1.39-17.24c.7-9.84.09-11.06-7.4-11.75v-3.05h18.02l16.8,38.13,17.07-38.13h17.5v3.05c-6.96.7-7.31,1.39-7.14,8.62l.78,32.56c.18,8.01.61,8.62,7.4,9.32v3.05h-25.68Z"/><path class="cls-8" d="M621.4,24.96c-4.7.26-6.53,1.48-6.97,5.4-.26,2.7-.78,6.79-.78,14.54v34.56h-4.18l-36.22-43.44h-.26v19.59c0,7.66.43,11.49.7,14.1.44,3.92,1.91,5.48,8.36,5.83v3.05h-21.33v-3.05c4.88-.35,6.88-1.83,7.23-5.49.35-2.96.87-6.79.87-14.45v-18.2c0-5.66-.09-7.23-1.74-9.32-1.65-2.09-3.57-2.79-7.31-3.13v-2.96h16.11l33.34,38.22h.26v-15.32c0-7.75-.43-11.84-.7-14.36-.44-3.74-2.18-5.22-8.62-5.57v-2.96h21.24v2.96Z"/><path class="cls-8" d="M373.61,62.81s8.28,1.89,18.47-8.19c7.55-8.07,13.61-12.04,17.42-12.61,6.59-1.23,10.1.9,10.1.9,0,0,.49-6.33-7.93-6.42-10.93.17-16.54,6.9-16.54,6.9,0,0,6.09-7.04,8.76-7.23,2.67-.19,0-1.33-.57-1.52-.57-.19,3.24-2.28,6.85-1.14,3.62,1.14-1.33-2.67-2.86-2.47-1.52.19,7.81-.19,9.14.76,1.33.95-2.67-5.9-8.19-4.95-5.52.95-10.66,9.71-10.66,9.71,0,0,4.19-12.18,6.67-13.33,2.47-1.14-3.05-.57-4.38,2.09,0,0,2.54-9.7-2.22-11.03,0,0-1.97,2.08-1.02,5.51l-1.14-4.95s-1.14,4-.38,5.71c.76,1.71,1.91,6.28,1.91,6.28,0,0-.38-1.14-2.29-1.52-1.9-.38,3.92,5.75-1.14,14.09,0,0,.76,14.66-19.99,23.42"/><path class="cls-8" d="M407.45,55.49c.6,1.76,1.64,5.12,9.34,4.77,3.92-.52,5.59-2.25,7.31-5.59,1.04-2.33,2.7-8.4-4.87-11.79-.29-.15-.32-.07-.63-.22-2.04-3.12,8.81,3.59,9.75,5.84.94,2.25,1.13,4.25,1.13,4.25,0,0-.38,2.4-1.18,4.17-2.01,4.17-3.65,5.1-3.65,5.1,0,0-.75.56-4.28,1.47-3.75.97-10.33-.06-12.22-.79,0,0-2.59-.52-4.32-4.83-.29-.96-.99-2.9.27-5.92,1.29-2.62,3.59-4.26,6.92-4.43,1.14-.06,2.57.12,3.79,1.01.77.5,2.8,2.77.21,4.94-.15-.13.24-.98-.04-2.23-.19-.71-.5-1-1.02-1.33-.52-.33-1.33-.56-1.72-.62-5.48-.5-5.13,4.46-4.78,6.21"/><path class="cls-8" d="M410.09,36.62s7.19-1.39,14.75,3.88c3.31,2.31,5.88,5.96,9.17,11.61.24.38.46.69.72,1.01,9.02,11.58,24.36,4.14,28.03,2.44,5.5-2.54,7.69,1.45,8.72,2.48,2.63,2.73,4.05,3.27,9.13-.36,1.59-1.13-1.69,5.08-5.53,5.12-6.32-.1-5.37-3.73-9-4.52-3.29-.52-7.48,4.92-15.46,4.68-7.26-.22-12.91,1.2-19.27-6.7-3.33-3.48-6.18-16.13-21.48-14.43l.22-5.22Z"/><path class="cls-8" d="M465.92,52.01c-.62-3.69-2.88-6.25-7.56-5.81-1.5.19-3.79,1.71-3.62,4.19.12,1.74,1.62,2.88,3.5,3-.23-.23-.86-.57-1.02-.79-2.42-3.2,2.16-4.85,4.33-3.09,1.31,1.12,2.2,3.51-.12,5.75,0,0-1.69,2.25-8.75,3.69-7.06,1.44,2.06,2.94,2.69,2.75,6.5-2.31,10.62-4.25,10.56-9.69"/><path class="cls-8" d="M363.02,62.81s-8.28,1.89-18.47-8.19c-7.55-8.07-13.61-12.04-17.42-12.61-6.59-1.23-10.1.9-10.1.9,0,0-.49-6.33,7.93-6.42,10.93.17,16.54,6.9,16.54,6.9,0,0-6.09-7.04-8.76-7.23-2.67-.19,0-1.33.57-1.52.57-.19-3.24-2.28-6.85-1.14-3.62,1.14,1.33-2.67,2.86-2.47,1.52.19-7.81-.19-9.14.76-1.33.95,2.67-5.9,8.19-4.95,5.52.95,10.66,9.71,10.66,9.71,0,0-4.19-12.18-6.67-13.33-2.48-1.14,3.05-.57,4.38,2.09,0,0-2.54-9.7,2.22-11.03,0,0,1.97,2.08,1.02,5.51l1.14-4.95s1.14,4,.38,5.71c-.76,1.71-1.91,6.28-1.91,6.28,0,0,.38-1.14,2.29-1.52,1.9-.38-3.92,5.75,1.14,14.09,0,0-.76,14.66,19.99,23.42"/><path class="cls-8" d="M329.18,55.49c-.6,1.76-1.64,5.12-9.34,4.77-3.92-.52-5.59-2.25-7.31-5.59-1.04-2.33-2.7-8.4,4.87-11.79.29-.15.32-.07.63-.22,2.04-3.12-8.81,3.59-9.75,5.84-.94,2.25-1.13,4.25-1.13,4.25,0,0,.38,2.4,1.18,4.17,2.01,4.17,3.65,5.1,3.65,5.1,0,0,.75.56,4.28,1.47,3.75.97,10.33-.06,12.22-.79,0,0,2.59-.52,4.32-4.83.29-.96.99-2.9-.26-5.92-1.29-2.62-3.59-4.26-6.92-4.43-1.14-.06-2.57.12-3.79,1.01-.77.5-2.8,2.77-.21,4.94.15-.13-.24-.98.04-2.23.19-.71.5-1,1.02-1.33.52-.33,1.33-.56,1.72-.62,5.48-.5,5.13,4.46,4.78,6.21"/><path class="cls-8" d="M326.54,36.62s-7.19-1.39-14.75,3.88c-3.31,2.31-5.88,5.96-9.17,11.61-.24.38-.46.69-.72,1.01-9.02,11.58-24.36,4.14-28.03,2.44-5.5-2.54-7.69,1.45-8.72,2.48-2.63,2.73-4.05,3.27-9.13-.36-1.59-1.13,1.69,5.08,5.53,5.12,6.32-.1,5.37-3.73,9-4.52,3.29-.52,7.48,4.92,15.46,4.68,7.26-.22,12.91,1.2,19.27-6.7,3.33-3.48,6.18-16.13,21.48-14.43l-.22-5.22Z"/><path class="cls-8" d="M270.71,52.01c.62-3.69,2.88-6.25,7.56-5.81,1.5.19,3.8,1.71,3.63,4.19-.12,1.74-1.62,2.88-3.5,3,.23-.23.86-.57,1.02-.79,2.42-3.2-2.16-4.85-4.33-3.09-1.31,1.12-2.2,3.51.12,5.75,0,0,1.69,2.25,8.75,3.69,7.06,1.44-2.06,2.94-2.69,2.75-6.5-2.31-10.62-4.25-10.56-9.69"/><rect class="cls-1" x="119.86" width="501.53" height="104.37"/><path class="cls-9" d="M157.56,131.4c-.41.21-1.3.42-2.44.42-3,0-4.82-1.88-4.82-4.75,0-3.11,2.16-4.99,5.04-4.99,1.13,0,1.95.24,2.3.42l-.38,1.37c-.45-.2-1.06-.37-1.85-.37-1.92,0-3.31,1.21-3.31,3.47,0,2.07,1.22,3.4,3.29,3.4.7,0,1.43-.14,1.88-.35l.28,1.36Z"/><path class="cls-9" d="M164.81,128.21c0,2.51-1.77,3.63-3.5,3.63-1.93,0-3.42-1.33-3.42-3.52s1.47-3.61,3.53-3.61,3.39,1.43,3.39,3.5ZM159.67,128.28c0,1.32.64,2.31,1.7,2.31.98,0,1.67-.97,1.67-2.34,0-1.07-.48-2.28-1.65-2.28s-1.71,1.18-1.71,2.31Z"/><path class="cls-9" d="M165.82,126.89c0-.79-.01-1.44-.06-2.03h1.48l.07,1.01h.04c.34-.53.95-1.16,2.1-1.16.9,0,1.6.5,1.89,1.26h.03c.24-.38.52-.66.84-.85.38-.27.81-.41,1.37-.41,1.13,0,2.28.77,2.28,2.96v4.02h-1.68v-3.77c0-1.13-.39-1.81-1.22-1.81-.59,0-1.02.42-1.21.91-.04.17-.08.38-.08.57v4.09h-1.68v-3.95c0-.95-.38-1.62-1.18-1.62-.64,0-1.08.5-1.23.98-.07.17-.1.36-.1.56v4.03h-1.68v-4.79Z"/><path class="cls-9" d="M177.28,126.89c0-.79-.01-1.44-.06-2.03h1.48l.07,1.01h.04c.34-.53.95-1.16,2.1-1.16.9,0,1.6.5,1.89,1.26h.03c.24-.38.52-.66.84-.85.38-.27.81-.41,1.37-.41,1.13,0,2.28.77,2.28,2.96v4.02h-1.68v-3.77c0-1.13-.39-1.81-1.22-1.81-.59,0-1.02.42-1.21.91-.04.17-.08.38-.08.57v4.09h-1.68v-3.95c0-.95-.38-1.62-1.18-1.62-.64,0-1.08.5-1.23.98-.07.17-.1.36-.1.56v4.03h-1.68v-4.79Z"/><path class="cls-9" d="M194.86,129.64c0,.81.03,1.48.06,2.04h-1.51l-.08-1.04h-.03c-.29.49-.97,1.19-2.18,1.19s-2.38-.74-2.38-2.97v-4.01h1.72v3.71c0,1.13.36,1.86,1.27,1.86.69,0,1.13-.49,1.32-.92.06-.15.1-.34.1-.53v-4.12h1.72v4.78Z"/><path class="cls-9" d="M196.31,126.89c0-.79-.01-1.44-.06-2.03h1.51l.08,1.02h.04c.29-.53,1.04-1.18,2.17-1.18,1.19,0,2.42.77,2.42,2.93v4.05h-1.72v-3.85c0-.98-.36-1.72-1.3-1.72-.69,0-1.16.49-1.34,1.01-.06.15-.07.36-.07.56v4.01h-1.74v-4.79Z"/><path class="cls-9" d="M205.75,122.95c0,.52-.38.92-.98.92s-.95-.41-.95-.92.39-.94.97-.94.95.41.97.94ZM203.91,131.68v-6.82h1.74v6.82h-1.74Z"/><path class="cls-9" d="M209.06,122.91v1.95h1.64v1.29h-1.64v3.01c0,.83.22,1.26.88,1.26.29,0,.52-.04.67-.08l.03,1.32c-.25.1-.7.17-1.25.17-.63,0-1.16-.21-1.49-.56-.36-.39-.53-1.01-.53-1.9v-3.21h-.98v-1.29h.98v-1.54l1.68-.41Z"/><path class="cls-9" d="M212.77,124.86l1.23,3.66c.14.42.28.94.38,1.33h.04c.11-.39.24-.9.36-1.34l1.07-3.64h1.85l-1.71,4.65c-.94,2.55-1.57,3.68-2.38,4.38-.67.6-1.37.83-1.81.88l-.39-1.46c.29-.07.66-.22,1.01-.48.32-.21.7-.62.94-1.08.07-.13.11-.22.11-.31,0-.07-.01-.17-.1-.34l-2.49-6.26h1.89Z"/><path class="cls-9" d="M221.27,127.35v1.19h-3.57v-1.19h3.57Z"/><path class="cls-9" d="M228.93,128.21c0,2.51-1.77,3.63-3.5,3.63-1.93,0-3.42-1.33-3.42-3.52s1.47-3.61,3.53-3.61,3.39,1.43,3.39,3.5ZM223.79,128.28c0,1.32.64,2.31,1.7,2.31.98,0,1.67-.97,1.67-2.34,0-1.07-.48-2.28-1.65-2.28s-1.71,1.18-1.71,2.31Z"/><path class="cls-9" d="M230.85,124.86l.71,3.1c.15.73.31,1.47.43,2.21h.03c.14-.74.36-1.5.56-2.2l.88-3.11h1.4l.85,3.03c.21.8.39,1.54.55,2.28h.03c.11-.74.27-1.48.45-2.28l.76-3.03h1.69l-2.14,6.82h-1.6l-.81-2.77c-.21-.71-.36-1.36-.52-2.18h-.03c-.14.84-.32,1.51-.52,2.18l-.87,2.77h-1.61l-2.02-6.82h1.76Z"/><path class="cls-9" d="M239.89,126.89c0-.79-.01-1.44-.06-2.03h1.51l.08,1.02h.04c.29-.53,1.04-1.18,2.17-1.18,1.19,0,2.42.77,2.42,2.93v4.05h-1.72v-3.85c0-.98-.36-1.72-1.3-1.72-.69,0-1.16.49-1.34,1.01-.06.15-.07.36-.07.56v4.01h-1.74v-4.79Z"/><path class="cls-9" d="M248.71,128.75c.04,1.23,1.01,1.76,2.1,1.76.8,0,1.37-.11,1.89-.31l.25,1.19c-.59.24-1.4.42-2.38.42-2.21,0-3.52-1.36-3.52-3.45,0-1.89,1.15-3.67,3.33-3.67s2.94,1.82,2.94,3.32c0,.32-.03.57-.06.73h-4.57ZM251.71,127.55c.01-.63-.27-1.67-1.41-1.67-1.06,0-1.51.97-1.58,1.67h3Z"/><path class="cls-9" d="M260.6,121.74v8.03c0,.7.03,1.46.06,1.92h-1.54l-.07-1.08h-.03c-.41.76-1.23,1.23-2.23,1.23-1.62,0-2.91-1.39-2.91-3.49-.01-2.28,1.41-3.64,3.05-3.64.94,0,1.61.39,1.92.9h.03v-3.87h1.72ZM258.88,127.7c0-.14-.01-.31-.04-.45-.15-.67-.7-1.22-1.48-1.22-1.11,0-1.72.98-1.72,2.26s.62,2.16,1.71,2.16c.7,0,1.32-.48,1.48-1.22.04-.15.06-.32.06-.5v-1.02Z"/><path class="cls-9" d="M270.19,127.58v1.09h-6.16v-1.09h6.16Z"/><path class="cls-9" d="M275.33,131.68l-3.05-9.44h1.88l1.29,4.29c.36,1.19.67,2.3.92,3.45h.03c.25-1.12.59-2.27.97-3.42l1.37-4.31h1.83l-3.26,9.44h-1.97Z"/><path class="cls-9" d="M287.06,128.21c0,2.51-1.77,3.63-3.5,3.63-1.93,0-3.42-1.33-3.42-3.52s1.47-3.61,3.53-3.61,3.39,1.43,3.39,3.5ZM281.92,128.28c0,1.32.64,2.31,1.7,2.31.98,0,1.67-.97,1.67-2.34,0-1.07-.48-2.28-1.65-2.28s-1.71,1.18-1.71,2.31Z"/><path class="cls-9" d="M288.05,121.74h1.74v9.95h-1.74v-9.95Z"/><path class="cls-9" d="M297.35,129.64c0,.81.03,1.48.06,2.04h-1.51l-.08-1.04h-.03c-.29.49-.97,1.19-2.19,1.19s-2.38-.74-2.38-2.97v-4.01h1.72v3.71c0,1.13.36,1.86,1.27,1.86.69,0,1.13-.49,1.32-.92.06-.15.1-.34.1-.53v-4.12h1.72v4.78Z"/><path class="cls-9" d="M298.8,126.89c0-.79-.01-1.44-.06-2.03h1.51l.08,1.02h.04c.29-.53,1.04-1.18,2.17-1.18,1.19,0,2.42.77,2.42,2.93v4.05h-1.72v-3.85c0-.98-.36-1.72-1.3-1.72-.69,0-1.16.49-1.34,1.01-.06.15-.07.36-.07.56v4.01h-1.74v-4.79Z"/><path class="cls-9" d="M308.31,122.91v1.95h1.64v1.29h-1.64v3.01c0,.83.22,1.26.88,1.26.29,0,.52-.04.67-.08l.03,1.32c-.25.1-.7.17-1.25.17-.63,0-1.16-.21-1.49-.56-.36-.39-.53-1.01-.53-1.9v-3.21h-.98v-1.29h.98v-1.54l1.68-.41Z"/><path class="cls-9" d="M311.98,128.75c.04,1.23,1.01,1.76,2.1,1.76.8,0,1.37-.11,1.89-.31l.25,1.19c-.59.24-1.4.42-2.38.42-2.21,0-3.52-1.36-3.52-3.45,0-1.89,1.15-3.67,3.33-3.67s2.94,1.82,2.94,3.32c0,.32-.03.57-.06.73h-4.57ZM314.97,127.55c.01-.63-.27-1.67-1.42-1.67-1.06,0-1.51.97-1.58,1.67h3Z"/><path class="cls-9" d="M318.79,128.75c.04,1.23,1.01,1.76,2.1,1.76.8,0,1.37-.11,1.89-.31l.25,1.19c-.59.24-1.4.42-2.38.42-2.21,0-3.52-1.36-3.52-3.45,0-1.89,1.15-3.67,3.33-3.67s2.94,1.82,2.94,3.32c0,.32-.03.57-.06.73h-4.57ZM321.79,127.55c.01-.63-.27-1.67-1.41-1.67-1.06,0-1.51.97-1.58,1.67h3Z"/><path class="cls-9" d="M324.39,127.06c0-.92-.01-1.58-.06-2.2h1.5l.06,1.3h.06c.34-.97,1.13-1.46,1.86-1.46.17,0,.27.01.41.04v1.62c-.14-.03-.29-.05-.5-.05-.83,0-1.39.53-1.54,1.3-.03.15-.06.34-.06.53v3.53h-1.72v-4.62Z"/><path class="cls-9" d="M332,127.35v1.19h-3.57v-1.19h3.57Z"/><path class="cls-9" d="M332.93,127.06c0-.92-.01-1.58-.06-2.2h1.5l.06,1.3h.06c.34-.97,1.13-1.46,1.86-1.46.17,0,.27.01.41.04v1.62c-.14-.03-.29-.05-.5-.05-.83,0-1.39.53-1.54,1.3-.03.15-.06.34-.06.53v3.53h-1.72v-4.62Z"/><path class="cls-9" d="M343.62,129.64c0,.81.03,1.48.06,2.04h-1.51l-.08-1.04h-.03c-.29.49-.97,1.19-2.19,1.19s-2.38-.74-2.38-2.97v-4.01h1.72v3.71c0,1.13.36,1.86,1.27,1.86.69,0,1.13-.49,1.32-.92.06-.15.1-.34.1-.53v-4.12h1.72v4.78Z"/><path class="cls-9" d="M345.07,126.89c0-.79-.01-1.44-.06-2.03h1.51l.08,1.02h.04c.29-.53,1.04-1.18,2.17-1.18,1.19,0,2.42.77,2.42,2.93v4.05h-1.72v-3.85c0-.98-.36-1.72-1.3-1.72-.69,0-1.16.49-1.34,1.01-.06.15-.07.36-.07.56v4.01h-1.74v-4.79Z"/><path class="cls-9" d="M360.82,127.58v1.09h-6.16v-1.09h6.16Z"/><path class="cls-9" d="M364.31,122.24h1.72v8h3.88v1.44h-5.6v-9.44Z"/><path class="cls-9" d="M377.05,128.21c0,2.51-1.76,3.63-3.5,3.63-1.93,0-3.42-1.33-3.42-3.52s1.47-3.61,3.53-3.61,3.39,1.43,3.39,3.5ZM371.91,128.28c0,1.32.64,2.31,1.69,2.31.98,0,1.67-.97,1.67-2.34,0-1.07-.48-2.28-1.65-2.28s-1.71,1.18-1.71,2.31Z"/><path class="cls-9" d="M383.05,131.47c-.36.17-1.08.35-1.93.35-2.13,0-3.52-1.36-3.52-3.47s1.4-3.64,3.8-3.64c.63,0,1.27.14,1.67.32l-.31,1.29c-.28-.13-.69-.27-1.3-.27-1.32,0-2.1.97-2.09,2.21,0,1.4.91,2.2,2.09,2.2.6,0,1.02-.13,1.36-.27l.24,1.28Z"/><path class="cls-9" d="M387.76,131.68l-.11-.76h-.04c-.42.53-1.13.91-2.02.91-1.37,0-2.14-1-2.14-2.03,0-1.72,1.53-2.59,4.05-2.58v-.11c0-.45-.18-1.19-1.39-1.19-.67,0-1.37.21-1.83.5l-.34-1.12c.5-.31,1.39-.6,2.47-.6,2.18,0,2.82,1.39,2.82,2.87v2.47c0,.62.03,1.22.1,1.64h-1.55ZM387.53,128.35c-1.22-.03-2.38.24-2.38,1.27,0,.67.43.98.98.98.69,0,1.19-.45,1.34-.94.04-.13.06-.27.06-.38v-.94Z"/><path class="cls-9" d="M390.61,121.74h1.74v9.95h-1.74v-9.95Z"/><path class="cls-9" d="M396.3,126.89c0-.79-.01-1.44-.06-2.03h1.51l.08,1.02h.04c.29-.53,1.04-1.18,2.17-1.18,1.19,0,2.42.77,2.42,2.93v4.05h-1.72v-3.85c0-.98-.36-1.72-1.3-1.72-.69,0-1.16.49-1.34,1.01-.06.15-.07.36-.07.56v4.01h-1.74v-4.79Z"/><path class="cls-9" d="M405.12,128.75c.04,1.23,1.01,1.76,2.1,1.76.8,0,1.37-.11,1.89-.31l.25,1.19c-.59.24-1.4.42-2.38.42-2.21,0-3.52-1.36-3.52-3.45,0-1.89,1.15-3.67,3.33-3.67s2.94,1.82,2.94,3.32c0,.32-.03.57-.06.73h-4.57ZM408.11,127.55c.01-.63-.27-1.67-1.42-1.67-1.06,0-1.51.97-1.58,1.67h3Z"/><path class="cls-9" d="M411.71,124.86l.71,3.1c.15.73.31,1.47.43,2.21h.03c.14-.74.36-1.5.56-2.2l.88-3.11h1.4l.85,3.03c.21.8.39,1.54.55,2.28h.03c.11-.74.27-1.48.45-2.28l.76-3.03h1.7l-2.14,6.82h-1.6l-.81-2.77c-.21-.71-.36-1.36-.52-2.18h-.03c-.14.84-.32,1.51-.52,2.18l-.87,2.77h-1.61l-2.02-6.82h1.76Z"/><path class="cls-9" d="M420.5,130.1c.39.24,1.13.49,1.75.49.76,0,1.09-.31,1.09-.76s-.28-.7-1.12-1c-1.33-.46-1.89-1.19-1.88-1.99,0-1.2.99-2.14,2.58-2.14.76,0,1.42.2,1.81.41l-.34,1.22c-.29-.17-.84-.39-1.44-.39s-.95.29-.95.71.32.64,1.19.95c1.23.45,1.81,1.08,1.82,2.09,0,1.23-.97,2.13-2.77,2.13-.83,0-1.57-.2-2.07-.48l.34-1.25Z"/><path class="cls-9" d="M432.35,131.68l-.11-.76h-.04c-.42.53-1.13.91-2.02.91-1.37,0-2.14-1-2.14-2.03,0-1.72,1.53-2.59,4.05-2.58v-.11c0-.45-.18-1.19-1.39-1.19-.67,0-1.37.21-1.83.5l-.34-1.12c.5-.31,1.39-.6,2.47-.6,2.18,0,2.82,1.39,2.82,2.87v2.47c0,.62.03,1.22.1,1.64h-1.55ZM432.12,128.35c-1.22-.03-2.38.24-2.38,1.27,0,.67.43.98.98.98.69,0,1.19-.45,1.34-.94.04-.13.06-.27.06-.38v-.94Z"/><path class="cls-9" d="M435.2,126.89c0-.79-.01-1.44-.06-2.03h1.51l.08,1.02h.04c.29-.53,1.04-1.18,2.17-1.18,1.19,0,2.42.77,2.42,2.93v4.05h-1.72v-3.85c0-.98-.36-1.72-1.3-1.72-.69,0-1.16.49-1.34,1.01-.06.15-.07.36-.07.56v4.01h-1.74v-4.79Z"/><path class="cls-9" d="M449.09,121.74v8.03c0,.7.03,1.46.06,1.92h-1.54l-.07-1.08h-.03c-.41.76-1.23,1.23-2.23,1.23-1.62,0-2.91-1.39-2.91-3.49-.01-2.28,1.42-3.64,3.05-3.64.94,0,1.61.39,1.92.9h.03v-3.87h1.72ZM447.37,127.7c0-.14-.01-.31-.04-.45-.15-.67-.7-1.22-1.49-1.22-1.11,0-1.72.98-1.72,2.26s.62,2.16,1.71,2.16c.7,0,1.32-.48,1.48-1.22.04-.15.06-.32.06-.5v-1.02Z"/><path class="cls-9" d="M454.1,124.86l1.11,3.46c.2.6.34,1.15.46,1.71h.04c.13-.56.28-1.09.46-1.71l1.08-3.46h1.82l-2.61,6.82h-1.7l-2.54-6.82h1.86Z"/><path class="cls-9" d="M461.54,122.95c0,.52-.38.92-.98.92s-.95-.41-.95-.92.39-.94.97-.94.95.41.97.94ZM459.7,131.68v-6.82h1.74v6.82h-1.74Z"/><path class="cls-9" d="M464.08,128.75c.04,1.23,1.01,1.76,2.1,1.76.8,0,1.37-.11,1.89-.31l.25,1.19c-.59.24-1.4.42-2.38.42-2.21,0-3.52-1.36-3.52-3.45,0-1.89,1.15-3.67,3.33-3.67s2.94,1.82,2.94,3.32c0,.32-.03.57-.06.73h-4.57ZM467.08,127.55c.01-.63-.27-1.67-1.42-1.67-1.06,0-1.51.97-1.58,1.67h3Z"/><path class="cls-9" d="M470.68,124.86l.71,3.1c.15.73.31,1.47.43,2.21h.03c.14-.74.36-1.5.56-2.2l.88-3.11h1.4l.85,3.03c.21.8.39,1.54.55,2.28h.03c.11-.74.27-1.48.45-2.28l.76-3.03h1.7l-2.14,6.82h-1.6l-.81-2.77c-.21-.71-.36-1.36-.52-2.18h-.03c-.14.84-.32,1.51-.52,2.18l-.87,2.77h-1.61l-2.02-6.82h1.76Z"/><path class="cls-9" d="M479.47,130.1c.39.24,1.13.49,1.75.49.76,0,1.09-.31,1.09-.76s-.28-.7-1.12-1c-1.33-.46-1.89-1.19-1.88-1.99,0-1.2.99-2.14,2.58-2.14.76,0,1.42.2,1.81.41l-.34,1.22c-.29-.17-.84-.39-1.44-.39s-.95.29-.95.71.32.64,1.19.95c1.23.45,1.81,1.08,1.82,2.09,0,1.23-.97,2.13-2.77,2.13-.83,0-1.57-.2-2.07-.48l.34-1.25Z"/><path class="cls-9" d="M487.39,130.1c.39.24,1.13.49,1.75.49.76,0,1.09-.31,1.09-.76s-.28-.7-1.12-1c-1.33-.46-1.89-1.19-1.88-1.99,0-1.2.99-2.14,2.58-2.14.76,0,1.42.2,1.81.41l-.34,1.22c-.29-.17-.84-.39-1.44-.39s-.95.29-.95.71.32.64,1.19.95c1.23.45,1.81,1.08,1.82,2.09,0,1.23-.97,2.13-2.77,2.13-.83,0-1.57-.2-2.07-.48l.34-1.25Z"/><path class="cls-9" d="M494.74,122.95c0,.52-.38.92-.98.92s-.95-.41-.95-.92.39-.94.97-.94.95.41.97.94ZM492.91,131.68v-6.82h1.74v6.82h-1.74Z"/><path class="cls-9" d="M496.07,126.89c0-.79-.01-1.44-.06-2.03h1.51l.08,1.02h.04c.29-.53,1.04-1.18,2.17-1.18,1.19,0,2.42.77,2.42,2.93v4.05h-1.72v-3.85c0-.98-.36-1.72-1.3-1.72-.69,0-1.16.49-1.34,1.01-.06.15-.07.36-.07.56v4.01h-1.74v-4.79Z"/><path class="cls-9" d="M508.69,131.47c-.36.17-1.08.35-1.93.35-2.13,0-3.52-1.36-3.52-3.47s1.4-3.64,3.8-3.64c.63,0,1.27.14,1.67.32l-.31,1.29c-.28-.13-.69-.27-1.3-.27-1.32,0-2.1.97-2.09,2.21,0,1.4.91,2.2,2.09,2.2.6,0,1.02-.13,1.36-.27l.24,1.28Z"/><path class="cls-9" d="M510.65,128.75c.04,1.23,1.01,1.76,2.1,1.76.8,0,1.37-.11,1.89-.31l.25,1.19c-.59.24-1.4.42-2.38.42-2.21,0-3.52-1.36-3.52-3.45,0-1.89,1.15-3.67,3.33-3.67s2.94,1.82,2.94,3.32c0,.32-.03.57-.06.73h-4.57ZM513.64,127.55c.01-.63-.27-1.67-1.42-1.67-1.06,0-1.51.97-1.58,1.67h3Z"/><path class="cls-9" d="M521.12,124.13h-.03l-1.67.84-.29-1.3,2.21-1.09h1.44v9.1h-1.67v-7.55Z"/><path class="cls-9" d="M526.2,130.45c.27.03.53.01.95-.03.67-.06,1.34-.29,1.85-.7.59-.48.99-1.16,1.16-2.02h-.03c-.46.5-1.11.8-1.99.8-1.58,0-2.76-1.15-2.76-2.83s1.34-3.25,3.29-3.25c2.12,0,3.25,1.67,3.25,3.88,0,1.95-.64,3.33-1.58,4.23-.8.74-1.89,1.16-3.11,1.25-.39.04-.78.04-1.04.03v-1.36ZM527.1,125.57c.01.94.55,1.67,1.5,1.67.7,0,1.2-.32,1.47-.76.06-.11.1-.25.1-.49.01-1.23-.45-2.3-1.57-2.3-.87,0-1.5.77-1.5,1.88Z"/><path class="cls-9" d="M538.84,122.58v1.11l-3.85,8h-1.82l3.84-7.65v-.03h-4.29v-1.43h6.12Z"/><path class="cls-9" d="M539.54,129.34c0-1.13.66-1.91,1.71-2.37v-.04c-.95-.46-1.39-1.22-1.39-2.02,0-1.49,1.32-2.49,3.04-2.49,1.96,0,2.86,1.18,2.86,2.3,0,.77-.41,1.57-1.4,2.06v.04c.99.38,1.74,1.16,1.74,2.3,0,1.62-1.37,2.72-3.32,2.72-2.13,0-3.24-1.22-3.24-2.49ZM544.35,129.26c0-.92-.69-1.43-1.7-1.71-.85.25-1.34.84-1.34,1.6-.03.77.56,1.47,1.53,1.47.91,0,1.51-.57,1.51-1.36ZM541.5,124.85c0,.74.62,1.19,1.48,1.43.62-.18,1.13-.69,1.13-1.37,0-.63-.38-1.29-1.3-1.29-.87,0-1.32.57-1.32,1.23Z"/></g></svg>