<?xml version="1.0" encoding="UTF-8"?><svg id="Layer_2" xmlns="http://www.w3.org/2000/svg" viewBox="0 0 706.96 162.61"><defs><style>.cls-1{fill:#fff;stroke-width:0px;}</style></defs><g id="Layer_1-2"><path class="cls-1" d="M150.01,54.8c-.2-7.88-1.55-17.5-6.09-25.79-4.54-8.29-10.5-11.53-15.25-14.41C111.79,4.34,93.42-.28,75.03.01c-18.4-.3-36.76,4.33-53.64,14.59-4.75,2.88-10.72,6.12-15.26,14.41C1.59,37.3.25,46.93.04,54.8h-.04v107.81h7.11v-98.37c0-4.22,3.42-7.65,7.65-7.65h120.53c4.22,0,7.65,3.42,7.65,7.65v98.37h7.11V54.8h-.04Z"/><rect class="cls-1" x="47.72" y="51.72" width="7.11" height="110.89"/><rect class="cls-1" x="95.38" y="51.72" width="7.11" height="110.89"/><rect class="cls-1" x="47.72" y="79.36" width="7.11" height="95.31" transform="translate(178.29 75.73) rotate(90)"/><rect class="cls-1" x="71.55" y="87.57" width="7.11" height="142.97" transform="translate(234.16 83.95) rotate(90)"/><polygon class="cls-1" points="109.26 107.77 109.26 111.95 109.26 123.45 119.24 123.45 119.24 111.95 119.24 107.77 119.24 81.3 109.26 81.3 109.26 107.77"/><polygon class="cls-1" points="126.23 81.3 126.23 107.77 126.23 111.95 126.23 123.45 136.2 123.45 136.2 111.95 136.2 107.77 136.2 81.3 126.23 81.3"/><rect class="cls-1" x="109.26" y="130.57" width="9.97" height="20.56"/><rect class="cls-1" x="126.23" y="130.57" width="9.97" height="20.56"/><path class="cls-1" d="M60.5,63.19c-2.47,0-4.46,2-4.46,4.46s2,4.46,4.46,4.46,4.46-2,4.46-4.46-2-4.46-4.46-4.46Z"/><path class="cls-1" d="M70.18,66.21c-2.47,0-4.46,2-4.46,4.46s2,4.46,4.46,4.46,4.46-2,4.46-4.46-2-4.46-4.46-4.46Z"/><path class="cls-1" d="M79.87,66.21c-2.47,0-4.46,2-4.46,4.46s2,4.46,4.46,4.46,4.46-2,4.46-4.46-2-4.46-4.46-4.46Z"/><path class="cls-1" d="M89.55,63.19c-2.47,0-4.46,2-4.46,4.46s2,4.46,4.46,4.46,4.46-2,4.46-4.46-2-4.46-4.46-4.46Z"/><path class="cls-1" d="M12.84,63.19c-2.47,0-4.46,2-4.46,4.46s2,4.46,4.46,4.46,4.46-2,4.46-4.46-2-4.46-4.46-4.46Z"/><path class="cls-1" d="M22.52,66.21c-2.47,0-4.46,2-4.46,4.46s2,4.46,4.46,4.46,4.46-2,4.46-4.46-2-4.46-4.46-4.46Z"/><path class="cls-1" d="M32.2,66.21c-2.47,0-4.46,2-4.46,4.46s2,4.46,4.46,4.46,4.46-2,4.46-4.46-2-4.46-4.46-4.46Z"/><path class="cls-1" d="M41.89,63.19c-2.47,0-4.46,2-4.46,4.46s2,4.46,4.46,4.46,4.46-2,4.46-4.46-2-4.46-4.46-4.46Z"/><path class="cls-1" d="M108.21,63.19c-2.47,0-4.46,2-4.46,4.46s2,4.46,4.46,4.46,4.46-2,4.46-4.46-2-4.46-4.46-4.46Z"/><path class="cls-1" d="M117.89,66.21c-2.47,0-4.46,2-4.46,4.46s2,4.46,4.46,4.46,4.46-2,4.46-4.46-2-4.46-4.46-4.46Z"/><path class="cls-1" d="M127.57,66.21c-2.47,0-4.46,2-4.46,4.46s2,4.46,4.46,4.46,4.46-2,4.46-4.46-2-4.46-4.46-4.46Z"/><path class="cls-1" d="M137.26,63.19c-2.47,0-4.46,2-4.46,4.46s2,4.46,4.46,4.46,4.46-2,4.46-4.46-2-4.46-4.46-4.46Z"/><path class="cls-1" d="M165.41,115.18c0-1.98.86-2.97,2.59-2.97h.98c.66,0,1.11.08,1.37.24.48.29.93.74,1.34,1.37l15.45,22.74c.59.86,1.06,1.65,1.39,2.37l.98,2.06s.04.05.08.05.04-.21.01-.62c-.03-.42-.11-1.02-.24-1.81s-.19-1.58-.19-2.36v-22.57c0-.42.12-.76.37-1.05.25-.28.55-.42.9-.42h3.17c.34,0,.63.14.88.42.25.28.37.63.37,1.05v32.91c0,.64-.2,1.13-.6,1.49-.67.61-1.28.91-1.82.91h-1.46c-.8,0-1.38-.13-1.75-.39-.54-.42-1.22-1.2-2.02-2.35-9.13-13.35-14.03-20.56-14.68-21.64l-1.99-3.34s-.08-.07-.13-.07-.06.12-.01.36c.05.24.12.64.2,1.21s.17,1.2.25,1.88c.16,1.6.24,3.08.24,4.46v18.4c0,.4-.12.74-.37,1.03-.25.29-.55.43-.9.43h-3.17c-.34,0-.63-.14-.88-.43-.25-.29-.37-.63-.37-1.03v-32.34Z"/><path class="cls-1" d="M207.39,136.77l-.02.46c0,2.19.7,3.95,2.09,5.28,1.45,1.41,3.43,2.11,5.92,2.11,2.27,0,4.38-.68,6.33-2.04.37-.25.7-.38.98-.38.59,0,1.04.3,1.34.89l.65,1.34c.14.32.22.66.22,1.03s-.16.75-.49,1.14c-.33.39-.76.75-1.28,1.07-.53.32-1.14.6-1.84.84-.7.24-1.41.44-2.15.6-1.47.32-3.01.48-4.6.48s-3.21-.3-4.83-.91c-1.62-.61-3.03-1.5-4.21-2.66-2.54-2.48-3.82-5.83-3.82-10.05,0-7.4,2.61-12.01,7.82-13.82,1.63-.56,3.31-.84,5.03-.84s3.18.19,4.39.55c1.21.37,2.25.91,3.13,1.63,1.85,1.52,2.78,3.64,2.78,6.36s-1.09,4.71-3.26,6.12c-1.9,1.23-4.41,1.85-7.53,1.85-1.92,0-4.13-.34-6.64-1.03ZM219.19,129.77c0-2.29-1.53-3.43-4.6-3.43s-4.97,1.07-6.14,3.21c-.42.75-.69,1.68-.82,2.78,1.38.69,3.13,1.03,5.25,1.03,4.21,0,6.31-1.2,6.31-3.6Z"/><path class="cls-1" d="M233.91,117.29c-1.09,0-2.01-.38-2.78-1.13-.77-.73-1.15-1.66-1.15-2.78s.38-2.01,1.15-2.78c.74-.74,1.66-1.1,2.78-1.1,1.71,0,2.91.79,3.6,2.35.21.47.31.98.31,1.53,0,1.12-.38,2.05-1.15,2.78-.77.75-1.69,1.13-2.76,1.13ZM236.72,142.39c0,1.13.37,1.7,1.13,1.7.26,0,.54-.07.86-.22.62-.27,1.05-.41,1.27-.41.34,0,.61.23.82.7l.74,1.68c.13.27.19.53.19.77,0,.69-.59,1.33-1.77,1.92-1.12.58-2.23.87-3.32.87s-1.97-.12-2.63-.36c-.66-.24-1.22-.64-1.68-1.2-.93-1.15-1.39-3.02-1.39-5.61v-18.71c0-.45.13-.82.38-1.13.26-.3.56-.46.91-.46h3.21c.37,0,.67.15.91.46.24.3.36.68.36,1.13v18.88Z"/><path class="cls-1" d="M252.87,146.41c1.5-.73,3.1-1.1,4.79-1.1s3.19.16,4.51.47c1.32.31,2.51.8,3.56,1.48,2.37,1.5,3.55,3.6,3.55,6.31s-1.34,5.08-4.03,6.79c-2.38,1.5-5.25,2.25-8.59,2.25s-6.24-.74-8.52-2.21c-2.45-1.6-3.67-3.77-3.67-6.53,0-3.34,1.77-6.57,5.3-9.69,1.38-1.2,2.89-2.28,4.56-3.24-2.61-.24-4.83-1.16-6.67-2.76-2.06-1.81-3.1-4.05-3.1-6.74,0-3.08,1.16-5.59,3.48-7.51,2.13-1.74,4.66-2.62,7.6-2.62,3.17,0,5.65.86,7.46,2.57.56.53,1.01,1.13,1.34,1.8,0-1.47-.19-2.99-.56-4.57-.38-1.57-.56-2.51-.56-2.82s.06-.55.18-.73c.12-.18.26-.32.42-.42.24-.15.51-.22.82-.22h2.06c1.33,0,1.99,1.85,1.99,5.54,0,2.96-.59,5.69-1.78,8.18.03.35.05.82.05,1.39s-.13,1.25-.38,2.02c-.26.77-.6,1.48-1.02,2.15-.42.66-.91,1.28-1.46,1.83-.55.56-1.14,1.08-1.75,1.56-.62.48-1.23.92-1.86,1.32-3.5,2.22-5.6,3.61-6.28,4.16-.69.55-1.17.99-1.44,1.33ZM250.62,150.86c-.59.67-.89,1.41-.89,2.23s.2,1.51.6,2.08c.4.58.93,1.06,1.58,1.44,1.26.72,2.85,1.08,4.75,1.08,3.01,0,5.1-.74,6.29-2.23.38-.5.57-1.12.57-1.87s-.24-1.39-.71-1.92c-.47-.53-1.06-.94-1.76-1.22-1.17-.48-2.69-.72-4.56-.72-2.88,0-4.84.38-5.88,1.13ZM251.77,135.27c.54.47,1.18.83,1.91,1.08s1.5.37,2.33.37,1.58-.12,2.27-.37c.69-.25,1.29-.61,1.82-1.09,1.12-1.01,1.68-2.3,1.68-3.89s-.62-2.89-1.87-3.81c-1.1-.82-2.46-1.22-4.08-1.22-2.56,0-4.33.95-5.3,2.85-.32.62-.48,1.35-.48,2.17s.15,1.56.46,2.22c.3.66.73,1.22,1.27,1.69Z"/><path class="cls-1" d="M274.46,107.96c0-.43.12-.79.37-1.08.25-.29.55-.43.9-.43h3.29c.37,0,.67.14.91.43.24.29.36.65.36,1.08v18.16c1.38-2.34,3.4-3.83,6.07-4.49.85-.21,1.92-.31,3.23-.31s2.52.28,3.66.85c1.14.57,2.04,1.35,2.71,2.34,1.2,1.81,1.8,4.47,1.8,7.99v14.9c0,.48-.14.86-.43,1.15-.29.29-.71.43-1.27.43h-2.35c-.61,0-1.06-.15-1.34-.46-.29-.3-.43-.68-.43-1.13v-14.92c0-4.09-1.5-6.14-4.51-6.14-1.68,0-3.26.73-4.75,2.21-1.58,1.6-2.37,3.44-2.37,5.52v13.34c0,.45-.14.82-.41,1.13-.27.3-.71.46-1.32.46h-2.61c-.46,0-.83-.15-1.09-.46-.26-.3-.4-.68-.4-1.13v-39.44Z"/><path class="cls-1" d="M306.32,148.98c-.96,0-1.44-.62-1.44-1.85v-39.12c0-.43.12-.8.36-1.1.24-.3.54-.46.91-.46h3.26c.37,0,.67.15.92.46.25.3.37.67.37,1.1v17.54c2.05-2.81,4.97-4.22,8.78-4.22,3.49,0,6.16,1.29,8.01,3.86,1.68,2.33,2.52,5.44,2.52,9.33,0,4.54-1.1,8.2-3.29,10.96-2.16,2.72-4.89,4.08-8.2,4.08-1.79,0-3.45-.41-4.98-1.21-1.53-.81-2.76-2.04-3.71-3.71-.03.5-.08.98-.13,1.46-.06.48-.09.94-.11,1.39-.06.99-.71,1.49-1.94,1.49h-1.34ZM312.4,128.99c-.66.82-1.17,1.78-1.52,2.88-.35,1.1-.53,2.24-.53,3.43s.18,2.34.53,3.46c.35,1.11.84,2.11,1.46,2.99,1.38,1.92,3.08,2.88,5.11,2.88,2.27,0,3.97-.99,5.11-2.97.93-1.65,1.39-3.77,1.39-6.38,0-4.3-1.1-7.07-3.31-8.3-.77-.43-1.7-.65-2.81-.65s-2.12.24-3.05.72-1.72,1.13-2.39,1.96Z"/><path class="cls-1" d="M334.73,135.36c0-2.08.35-3.98,1.04-5.72.7-1.74,1.65-3.22,2.87-4.45,2.54-2.58,5.75-3.86,9.62-3.86,4.33,0,7.69,1.29,10.07,3.86,2.3,2.48,3.46,5.88,3.46,10.22s-1.3,7.62-3.91,10.27c-2.54,2.61-5.75,3.91-9.62,3.91-4.08,0-7.36-1.33-9.84-4.01-2.46-2.6-3.69-6.01-3.69-10.22ZM342.44,129.25c-.6.89-1.04,1.9-1.31,3.02-.27,1.13-.41,2.27-.41,3.43s.16,2.27.47,3.33c.31,1.07.78,2.01,1.4,2.84,1.38,1.82,3.3,2.74,5.76,2.74s4.41-.9,5.71-2.69c1.15-1.56,1.73-3.7,1.73-6.4,0-4.05-1.33-6.84-3.98-8.37-.98-.56-2.15-.84-3.54-.84s-2.55.27-3.5.8c-.95.54-1.73,1.25-2.33,2.14Z"/><path class="cls-1" d="M392.01,147.35c0,1.09-.5,1.63-1.49,1.63h-1.08c-.96,0-1.59-.39-1.89-1.15-.34-.88-.7-2.1-1.08-3.67-.67,1.68-1.81,3-3.42,3.97-1.61.97-3.61,1.45-6.01,1.45-3.13,0-5.44-.98-6.93-2.94-1.49-1.96-2.23-4.85-2.23-8.67v-14.47c0-.45.14-.82.42-1.13.28-.3.67-.46,1.19-.46h2.64c1.06,0,1.58.53,1.58,1.58v14.2c0,3.82.89,6.03,2.66,6.62.57.19,1.26.29,2.05.29s1.61-.18,2.45-.55c.84-.37,1.59-.85,2.27-1.46,1.5-1.39,2.25-2.98,2.25-4.77v-14.32c0-.45.14-.82.41-1.13.27-.3.7-.46,1.3-.46h2.52c.56,0,.97.15,1.22.46.26.3.38.68.38,1.13v14.99c0,3.37.24,6.09.72,8.16.05.18.07.41.07.7Z"/><path class="cls-1" d="M398.6,123.65c0-1.15.5-1.73,1.51-1.73h1.29c.88,0,1.5.39,1.87,1.15.53,1.12.91,2.66,1.15,4.63,0,.03.01.05.04.05s.08-.27.16-.82c.08-.54.31-1.21.7-2,.38-.79.86-1.46,1.42-2,1.13-1.07,2.53-1.61,4.17-1.61,1.84,0,3.12.3,3.84.91.34.27.47.65.41,1.13l-.38,3.02c-.1.82-.51,1.22-1.25,1.22-.35,0-.78-.07-1.29-.22-.99-.26-1.78-.39-2.35-.39s-1.18.25-1.82.76c-.64.5-1.19,1.13-1.65,1.88-.94,1.57-1.42,3.24-1.42,5.01v12.74c0,.45-.13.82-.38,1.13-.26.3-.62.46-1.1.46h-2.78c-.51,0-.9-.15-1.16-.46-.26-.3-.4-.68-.4-1.13v-16.53c0-2.81-.09-4.67-.28-5.58-.18-.9-.28-1.45-.28-1.65Z"/><path class="cls-1" d="M419.55,107.96c0-.43.12-.79.37-1.08.25-.29.55-.43.9-.43h3.29c.37,0,.67.14.91.43.24.29.36.65.36,1.08v18.16c1.38-2.34,3.4-3.83,6.07-4.49.85-.21,1.92-.31,3.23-.31s2.52.28,3.66.85c1.14.57,2.04,1.35,2.71,2.34,1.2,1.81,1.8,4.47,1.8,7.99v14.9c0,.48-.14.86-.43,1.15-.29.29-.71.43-1.27.43h-2.35c-.61,0-1.06-.15-1.34-.46-.29-.3-.43-.68-.43-1.13v-14.92c0-4.09-1.5-6.14-4.51-6.14-1.68,0-3.26.73-4.75,2.21-1.58,1.6-2.37,3.44-2.37,5.52v13.34c0,.45-.14.82-.41,1.13-.27.3-.71.46-1.32.46h-2.61c-.46,0-.83-.15-1.09-.46-.26-.3-.4-.68-.4-1.13v-39.44Z"/><path class="cls-1" d="M448.84,135.36c0-2.08.35-3.98,1.04-5.72.7-1.74,1.65-3.22,2.87-4.45,2.54-2.58,5.75-3.86,9.62-3.86,4.33,0,7.69,1.29,10.07,3.86,2.3,2.48,3.46,5.88,3.46,10.22s-1.3,7.62-3.91,10.27c-2.54,2.61-5.75,3.91-9.62,3.91-4.08,0-7.36-1.33-9.84-4.01-2.46-2.6-3.69-6.01-3.69-10.22ZM456.55,129.25c-.6.89-1.04,1.9-1.31,3.02-.27,1.13-.41,2.27-.41,3.43s.16,2.27.47,3.33c.31,1.07.78,2.01,1.4,2.84,1.38,1.82,3.3,2.74,5.76,2.74s4.41-.9,5.71-2.69c1.15-1.56,1.73-3.7,1.73-6.4,0-4.05-1.33-6.84-3.98-8.37-.98-.56-2.15-.84-3.54-.84s-2.55.27-3.5.8c-.95.54-1.73,1.25-2.33,2.14Z"/><path class="cls-1" d="M480.55,135.36c0-2.08.35-3.98,1.04-5.72s1.65-3.22,2.87-4.45c2.54-2.58,5.75-3.86,9.62-3.86,4.33,0,7.69,1.29,10.07,3.86,2.3,2.48,3.46,5.88,3.46,10.22s-1.3,7.62-3.91,10.27c-2.54,2.61-5.75,3.91-9.62,3.91-4.08,0-7.36-1.33-9.84-4.01-2.46-2.6-3.69-6.01-3.69-10.22ZM488.26,129.25c-.6.89-1.04,1.9-1.31,3.02-.27,1.13-.41,2.27-.41,3.43s.16,2.27.47,3.33c.31,1.07.78,2.01,1.4,2.84,1.38,1.82,3.3,2.74,5.76,2.74s4.41-.9,5.71-2.69c1.15-1.56,1.73-3.7,1.73-6.4,0-4.05-1.33-6.84-3.98-8.37-.98-.56-2.15-.84-3.54-.84s-2.55.27-3.5.8c-.95.54-1.73,1.25-2.33,2.14Z"/><path class="cls-1" d="M531.94,125.31v-17.34c0-.42.12-.77.37-1.07.25-.3.56-.44.92-.44h3.34c.37,0,.67.15.91.44s.36.65.36,1.07v30.75c0,3.23.26,5.91.77,8.04.05.22.07.51.07.85s-.15.66-.44.95c-.3.29-.67.43-1.14.43h-1.18c-.94,0-1.58-.39-1.89-1.15-.42-.97-.76-2.26-1.03-3.86-1.23,2.61-3.3,4.34-6.21,5.21-.96.27-2.16.41-3.59.41s-2.85-.37-4.27-1.1c-1.41-.73-2.62-1.74-3.61-3-2.03-2.62-3.05-5.88-3.05-9.79s.98-7.37,2.95-10.03c2.13-2.89,4.97-4.34,8.52-4.34s6.28,1.33,8.2,3.98ZM518.41,135.86c0,1.09.13,2.15.4,3.19.26,1.04.67,1.97,1.21,2.78,1.22,1.86,2.9,2.78,5.04,2.78,1.95,0,3.66-.85,5.13-2.54,1.57-1.76,2.35-3.84,2.35-6.24,0-2.91-.76-5.24-2.28-7-1.45-1.68-3.25-2.52-5.37-2.52s-3.91,1.05-5.06,3.14c-.94,1.76-1.42,3.89-1.42,6.41Z"/><path class="cls-1" d="M582.69,120.24c0,1.99-.88,2.98-2.64,2.98h-1.66c-.51,0-.91-.19-1.19-.56s-.44-.9-.48-1.56c-.04-.67-.24-1.27-.61-1.82s-.84-.99-1.42-1.33c-1.07-.62-2.5-.93-4.27-.93s-3.32.37-4.63,1.12c-1.31.74-2.37,1.74-3.17,2.99-1.53,2.34-2.3,5.45-2.3,9.35,0,7.02,2.29,11.43,6.86,13.24,1.41.55,2.78.82,4.13.82,2.43,0,4.57-.44,6.43-1.32l1.34-.62c.43-.19.82-.29,1.15-.29s.61.08.82.24c.21.16.47.54.78,1.14.31.6.47,1.12.47,1.56s-.15.87-.46,1.29c-.3.42-.68.8-1.13,1.12-.78.51-1.73.93-2.83,1.27-2.02.61-4.37.91-7.06.91s-5.1-.49-7.22-1.46c-2.12-.98-3.9-2.33-5.34-4.06-2.96-3.52-4.44-8.13-4.44-13.84s1.5-10.12,4.49-13.48c3.05-3.46,7.26-5.18,12.62-5.18,2.94,0,5.55.66,7.82,1.97,2.62,1.5,3.93,3.66,3.93,6.47Z"/><path class="cls-1" d="M591.01,137.01l-.02.46c0,2.19.7,3.95,2.09,5.28,1.45,1.41,3.43,2.11,5.92,2.11,2.27,0,4.38-.68,6.33-2.04.37-.25.7-.38.98-.38.59,0,1.04.3,1.34.89l.65,1.34c.14.32.22.66.22,1.03s-.16.75-.49,1.14c-.33.39-.76.75-1.28,1.07s-1.14.6-1.84.84c-.7.24-1.41.44-2.15.6-1.47.32-3.01.48-4.6.48s-3.21-.3-4.83-.91c-1.62-.61-3.03-1.5-4.21-2.66-2.54-2.48-3.82-5.83-3.82-10.05,0-7.4,2.61-12.01,7.82-13.82,1.63-.56,3.31-.84,5.03-.84s3.18.19,4.39.55c1.21.37,2.25.91,3.13,1.63,1.85,1.52,2.78,3.64,2.78,6.36s-1.09,4.71-3.26,6.12c-1.9,1.23-4.41,1.85-7.53,1.85-1.92,0-4.13-.34-6.64-1.03ZM602.81,130.01c0-2.29-1.53-3.43-4.6-3.43s-4.97,1.07-6.14,3.21c-.42.75-.69,1.68-.82,2.78,1.38.69,3.13,1.03,5.25,1.03,4.21,0,6.31-1.2,6.31-3.6Z"/><path class="cls-1" d="M614.41,123.89c0-1.15.55-1.73,1.66-1.73h1.32c.9,0,1.5.34,1.82,1.01.45.96.83,2.22,1.15,3.79,1.44-2.63,3.58-4.3,6.43-5.04.9-.24,2.01-.36,3.35-.36s2.57.28,3.71.85c1.13.57,2.03,1.35,2.69,2.34,1.22,1.81,1.82,4.47,1.82,7.99v14.9c0,.45-.14.82-.43,1.13-.29.3-.71.46-1.27.46h-2.35c-.61,0-1.06-.15-1.34-.46-.29-.3-.43-.68-.43-1.13v-14.92c0-4.09-1.5-6.14-4.51-6.14-1.76,0-3.37.73-4.82,2.21-1.55,1.58-2.33,3.42-2.33,5.52v13.34c0,.45-.14.82-.41,1.13-.27.3-.69.46-1.25.46h-2.47c-.56,0-.98-.15-1.27-.46-.29-.3-.43-.68-.43-1.13v-14.73c0-3.22-.1-5.46-.31-6.73-.21-1.27-.31-2.04-.31-2.29Z"/><path class="cls-1" d="M660.4,125.81c0,.9-.5,1.34-1.51,1.34h-6.77v15.06c0,1.63.81,2.45,2.42,2.45,1.02,0,2.36-.51,4.01-1.53.32-.21.67-.31,1.04-.31s.67.27.9.79l.55,1.25c.21.48.31.89.31,1.22s-.25.72-.76,1.16c-.5.44-1.15.84-1.93,1.19-1.78.8-3.38,1.2-4.82,1.2s-2.58-.15-3.42-.44c-.84-.3-1.56-.74-2.15-1.33-1.28-1.25-1.92-3.05-1.92-5.4v-15.31h-2.02c-1.01,0-1.51-.46-1.51-1.37v-1.37c0-.37.1-.65.29-.86.19-.21.57-.37,1.13-.48l2.4-.7.91-5.64c.18-1.06.61-1.58,1.3-1.58h1.99c.37,0,.67.15.91.44.24.3.36.67.36,1.14v5.42h6.77c1.01,0,1.51.44,1.51,1.32v2.33Z"/><path class="cls-1" d="M664.98,123.89c0-1.15.5-1.73,1.51-1.73h1.29c.88,0,1.5.39,1.87,1.15.53,1.12.91,2.66,1.15,4.63,0,.03.01.05.04.05s.08-.27.16-.82c.08-.54.31-1.21.7-2,.38-.79.86-1.46,1.42-2,1.13-1.07,2.53-1.61,4.17-1.61,1.84,0,3.12.3,3.84.91.34.27.47.65.41,1.13l-.38,3.02c-.1.82-.51,1.22-1.25,1.22-.35,0-.78-.07-1.29-.22-.99-.26-1.78-.39-2.35-.39s-1.18.25-1.82.76c-.64.5-1.19,1.13-1.65,1.88-.94,1.57-1.42,3.24-1.42,5.01v12.74c0,.45-.13.82-.38,1.13-.26.3-.62.46-1.1.46h-2.78c-.51,0-.9-.15-1.16-.46-.26-.3-.4-.68-.4-1.13v-16.53c0-2.81-.09-4.67-.28-5.58-.18-.9-.28-1.45-.28-1.65Z"/><path class="cls-1" d="M689.45,137.01l-.02.46c0,2.19.7,3.95,2.09,5.28,1.45,1.41,3.43,2.11,5.92,2.11,2.27,0,4.38-.68,6.33-2.04.37-.25.7-.38.98-.38.59,0,1.04.3,1.34.89l.65,1.34c.14.32.22.66.22,1.03s-.16.75-.49,1.14c-.33.39-.76.75-1.28,1.07-.53.32-1.14.6-1.84.84-.7.24-1.41.44-2.15.6-1.47.32-3.01.48-4.6.48s-3.21-.3-4.83-.91c-1.62-.61-3.03-1.5-4.21-2.66-2.54-2.48-3.82-5.83-3.82-10.05,0-7.4,2.61-12.01,7.82-13.82,1.63-.56,3.31-.84,5.03-.84s3.18.19,4.39.55c1.21.37,2.25.91,3.13,1.63,1.85,1.52,2.78,3.64,2.78,6.36s-1.09,4.71-3.26,6.12c-1.9,1.23-4.41,1.85-7.53,1.85-1.92,0-4.13-.34-6.64-1.03ZM701.25,130.01c0-2.29-1.53-3.43-4.6-3.43s-4.97,1.07-6.14,3.21c-.42.75-.69,1.68-.82,2.78,1.38.69,3.13,1.03,5.25,1.03,4.21,0,6.31-1.2,6.31-3.6Z"/><path class="cls-1" d="M165.41,65.35c0-1.82.79-2.74,2.38-2.74h.9c.6,0,1.02.07,1.26.22.44.26.85.68,1.24,1.26l14.21,20.91c.54.79.97,1.52,1.28,2.18l.9,1.9s.04.04.08.04.04-.19.01-.57c-.03-.38-.1-.94-.22-1.67-.12-.73-.18-1.45-.18-2.17v-20.76c0-.38.11-.7.34-.96s.5-.39.83-.39h2.91c.31,0,.58.13.81.39.23.26.34.58.34.96v30.27c0,.59-.18,1.05-.55,1.37-.62.56-1.18.84-1.68.84h-1.35c-.74,0-1.27-.12-1.61-.35-.5-.38-1.12-1.1-1.85-2.16-8.4-12.28-12.9-18.91-13.5-19.9l-1.83-3.07s-.07-.07-.12-.07-.05.11-.01.33c.04.22.11.59.19,1.11.08.52.16,1.1.23,1.73.15,1.47.22,2.84.22,4.1v16.92c0,.37-.11.68-.34.95-.23.27-.5.4-.83.4h-2.91c-.31,0-.58-.13-.81-.4-.23-.26-.34-.58-.34-.95v-29.74Z"/><path class="cls-1" d="M198.55,83.9c0-1.91.32-3.66.96-5.26.64-1.6,1.52-2.96,2.64-4.09,2.34-2.37,5.29-3.55,8.85-3.55,3.99,0,7.07,1.18,9.27,3.55,2.12,2.28,3.18,5.41,3.18,9.4s-1.2,7-3.6,9.44c-2.34,2.4-5.29,3.6-8.85,3.6-3.75,0-6.76-1.23-9.04-3.68-2.26-2.4-3.4-5.53-3.4-9.4ZM205.64,78.28c-.55.82-.95,1.74-1.2,2.78-.25,1.04-.38,2.09-.38,3.15s.14,2.09.43,3.07c.29.98.72,1.85,1.29,2.61,1.26,1.68,3.03,2.52,5.29,2.52s4.06-.82,5.25-2.47c1.06-1.44,1.59-3.4,1.59-5.89,0-3.72-1.22-6.29-3.66-7.7-.9-.52-1.98-.77-3.25-.77s-2.35.25-3.22.74c-.88.49-1.59,1.15-2.14,1.96Z"/><path class="cls-1" d="M228.34,73.13c0-1.06.46-1.59,1.39-1.59h1.19c.81,0,1.38.35,1.72,1.06.49,1.03.84,2.45,1.06,4.26,0,.03.01.04.03.04s.07-.25.14-.75c.07-.5.29-1.11.64-1.84.35-.73.79-1.34,1.3-1.84,1.04-.98,2.32-1.48,3.84-1.48,1.69,0,2.87.28,3.53.84.31.25.43.6.37,1.04l-.35,2.78c-.09.75-.47,1.12-1.15,1.12-.32,0-.72-.07-1.19-.2-.91-.24-1.63-.35-2.16-.35s-1.09.23-1.68.7c-.59.46-1.1,1.04-1.52,1.73-.87,1.44-1.3,2.98-1.3,4.61v11.71c0,.41-.12.76-.35,1.04-.24.28-.57.42-1.02.42h-2.56c-.47,0-.83-.14-1.07-.42-.24-.28-.36-.63-.36-1.04v-15.2c0-2.59-.09-4.3-.25-5.13-.17-.83-.25-1.33-.25-1.51Z"/><path class="cls-1" d="M261.96,74.9c0,.82-.46,1.24-1.39,1.24h-6.22v13.85c0,1.5.74,2.25,2.23,2.25.94,0,2.17-.47,3.68-1.41.29-.19.61-.29.96-.29s.62.24.83.73l.51,1.15c.19.44.29.82.29,1.12s-.23.67-.69,1.07c-.46.4-1.06.77-1.78,1.09-1.63.74-3.11,1.1-4.43,1.1s-2.37-.14-3.14-.41c-.77-.27-1.43-.68-1.97-1.22-1.18-1.15-1.77-2.8-1.77-4.96v-14.07h-1.85c-.93,0-1.39-.42-1.39-1.26v-1.26c0-.34.09-.6.26-.79s.52-.34,1.04-.44l2.21-.64.84-5.19c.16-.97.56-1.46,1.19-1.46h1.83c.34,0,.62.14.84.41.22.27.33.62.33,1.05v4.99h6.22c.93,0,1.39.4,1.39,1.21v2.14Z"/><path class="cls-1" d="M266.82,58.71c0-.4.11-.73.34-.99.23-.26.5-.4.83-.4h3.02c.34,0,.62.13.84.4.22.27.33.6.33.99v16.7c1.26-2.15,3.12-3.52,5.58-4.13.78-.19,1.77-.29,2.97-.29s2.32.26,3.36.78c1.04.52,1.87,1.24,2.49,2.15,1.1,1.66,1.65,4.11,1.65,7.35v13.7c0,.44-.13.79-.4,1.06-.26.27-.65.4-1.17.4h-2.16c-.56,0-.97-.14-1.23-.42-.26-.28-.4-.63-.4-1.04v-13.72c0-3.77-1.38-5.65-4.15-5.65-1.54,0-3,.68-4.37,2.03-1.46,1.47-2.18,3.16-2.18,5.07v12.26c0,.41-.12.76-.37,1.04-.25.28-.65.42-1.21.42h-2.4c-.43,0-.76-.14-1-.42-.24-.28-.36-.63-.36-1.04v-36.27Z"/><path class="cls-1" d="M326.5,82.64c.74,1.4,1.1,2.86,1.1,4.38s-.32,2.91-.96,4.15c-.64,1.24-1.5,2.31-2.59,3.19-2.25,1.82-5.01,2.73-8.29,2.73-2.75,0-5.15-.63-7.21-1.9-2.37-1.49-3.55-3.54-3.55-6.16,0-2.77,1.25-4.98,3.75-6.66.72-.49,1.48-.88,2.27-1.19-2.77-.71-4.61-2.26-5.54-4.66-.32-.85-.49-1.93-.49-3.22s.32-2.52.96-3.68c.64-1.16,1.47-2.14,2.5-2.94,2.1-1.62,4.53-2.43,7.28-2.43,3.91,0,7.02.9,9.33,2.69.65.52.98.98,1.01,1.41,0,.29-.07.54-.22.73l-1.35,1.92c-.35.54-.76.82-1.21.82-.28,0-.57-.11-.88-.34-.31-.23-.7-.49-1.17-.79-.47-.3-.97-.57-1.5-.81-1.18-.51-2.25-.77-3.22-.77s-1.78.08-2.44.23c-.65.15-1.24.41-1.75.76-1.16.78-1.74,1.92-1.74,3.42,0,1.59.89,2.84,2.67,3.75,1.51.75,3.21,1.12,5.07,1.12h10.3c.82,0,1.24.35,1.24,1.06v2.23c0,.29-.12.53-.36.7s-.53.25-.87.25h-2.14ZM311.23,86.1c-.41.77-.62,1.53-.62,2.31s.15,1.39.44,1.86c.29.47.68.86,1.17,1.17,1,.66,2.07.99,3.22.99s2.13-.14,2.94-.42c.82-.28,1.53-.69,2.15-1.24,1.34-1.16,2.01-2.73,2.01-4.72,0-1.38-.33-2.43-.99-3.15-.15-.16-.25-.29-.31-.38-.16-.01-.32-.02-.46-.02h-.46c-4.72,0-7.75,1.2-9.09,3.6Z"/><path class="cls-1" d="M343.49,64.9c-.06-.23-.09-.54-.09-.9s.11-.69.34-.97c.23-.28.55-.42.96-.42h3.15c.71,0,1.15.45,1.35,1.35l3.62,16.1c.04.24.12.63.24,1.19,1.18,5.76,1.8,8.86,1.87,9.29l.15.86c.01.13.08.2.2.2.24,0,.42-.17.55-.51.76-1.96,1.41-4.01,1.94-6.16l1.59-6.42c.5-2.12.96-4.23,1.37-6.34.41-2.11.87-4.25,1.37-6.43.32-1.43,1.23-2.14,2.71-2.14h2.21c1.37,0,2.28.71,2.74,2.14.96,3.19,1.6,5.42,1.92,6.68l4.76,19.06c.04.24.16.35.35.35.18,0,.33-.19.47-.58s.33-.98.57-1.75c.24-.78.5-1.65.76-2.6l.77-3c.84-3.41,1.4-6.18,1.68-8.3.28-2.12.47-3.61.56-4.45.1-.84.17-1.59.21-2.25.09-1.04.13-1.99.13-2.82s.01-1.42.04-1.74.1-.61.22-.86c.28-.57.82-.86,1.63-.86h2.01c1.07,0,1.68.49,1.83,1.46.06.31.09.65.09,1.04s-.02.91-.04,1.58c-.03.67-.09,1.44-.18,2.3-.52,5.69-1.98,12.27-4.39,19.74-1.16,3.6-2.15,5.84-2.98,6.71-.62.66-1.47.99-2.56.99h-1.74c-2.16,0-3.57-1.29-4.21-3.86l-5.65-22.52c-.01-.07-.06-.11-.13-.11s-.11.04-.11.11l-1.21,6.57c-1.06,6.07-2.43,11.43-4.13,16.06-.54,1.53-.99,2.47-1.35,2.82-.62.62-1.54.93-2.76.93h-1.77c-1.1,0-1.96-.28-2.56-.85s-1.07-1.5-1.39-2.81l-7.15-27.86Z"/><path class="cls-1" d="M395.92,85.2l-.02.42c0,2.01.64,3.63,1.92,4.85,1.34,1.3,3.15,1.94,5.45,1.94,2.09,0,4.03-.63,5.82-1.88.34-.24.64-.35.9-.35.54,0,.96.27,1.24.82l.6,1.24c.13.29.2.61.2.95s-.15.69-.45,1.05c-.3.36-.69.69-1.18.98-.49.29-1.05.55-1.69.77-.64.22-1.3.4-1.97.55-1.35.29-2.77.44-4.24.44s-2.95-.28-4.45-.84c-1.49-.56-2.78-1.37-3.87-2.45-2.34-2.28-3.51-5.36-3.51-9.24,0-6.81,2.4-11.04,7.19-12.71,1.5-.52,3.04-.77,4.62-.77s2.93.17,4.04.51c1.11.34,2.07.84,2.88,1.5,1.71,1.4,2.56,3.35,2.56,5.85s-1,4.33-3,5.63c-1.75,1.13-4.06,1.7-6.93,1.7-1.77,0-3.8-.32-6.11-.95ZM406.78,78.76c0-2.1-1.41-3.15-4.24-3.15s-4.57.98-5.65,2.96c-.38.69-.63,1.54-.75,2.56,1.26.63,2.87.95,4.83.95,3.87,0,5.8-1.1,5.8-3.31Z"/><path class="cls-1" d="M424.53,92.46c2.82,0,4.24-.95,4.24-2.84,0-1.05-.8-1.93-2.4-2.65-.68-.31-1.42-.6-2.22-.86-.8-.26-1.57-.58-2.31-.95-.74-.37-1.42-.77-2.06-1.2-.64-.43-1.19-.93-1.66-1.49-.97-1.18-1.46-2.67-1.46-4.48,0-2.21.92-3.96,2.76-5.25,1.63-1.16,3.64-1.74,6.02-1.74,2.56,0,4.7.5,6.42,1.5.59.35.88.76.88,1.21,0,.65-.17,1.36-.52,2.13-.35.77-.75,1.16-1.21,1.16s-.88-.1-1.26-.29c-.37-.19-.71-.36-1.01-.5-.3-.14-.62-.25-.96-.34-.74-.22-1.42-.33-2.04-.33s-1.13.04-1.51.13c-.38.09-.73.23-1.04.42-.75.46-1.13,1.02-1.13,1.68s.15,1.17.45,1.52c.3.35.72.68,1.25.97.53.29,1.16.59,1.9.88l2.38.99c1.93.84,3.23,1.6,3.91,2.27,1.32,1.35,1.98,2.92,1.98,4.7,0,2.24-.76,4.07-2.29,5.51-1.69,1.57-4.1,2.36-7.21,2.36s-5.54-.61-7.13-1.83c-.78-.59-1.17-1.12-1.17-1.59s.08-.89.25-1.27c.17-.37.39-.82.66-1.32.27-.51.64-.76,1.1-.76s.96.21,1.48.63c.52.42,1.24.79,2.15,1.12.91.33,1.83.5,2.76.5Z"/><path class="cls-1" d="M452.76,74.9c0,.82-.46,1.24-1.39,1.24h-6.22v13.85c0,1.5.74,2.25,2.23,2.25.94,0,2.17-.47,3.68-1.41.29-.19.61-.29.96-.29s.62.24.83.73l.51,1.15c.19.44.29.82.29,1.12s-.23.67-.69,1.07c-.46.4-1.06.77-1.78,1.09-1.63.74-3.11,1.1-4.43,1.1s-2.37-.14-3.14-.41c-.77-.27-1.43-.68-1.97-1.22-1.18-1.15-1.77-2.8-1.77-4.96v-14.07h-1.85c-.93,0-1.39-.42-1.39-1.26v-1.26c0-.34.09-.6.26-.79s.52-.34,1.04-.44l2.21-.64.84-5.19c.16-.97.56-1.46,1.19-1.46h1.83c.34,0,.62.14.84.41s.33.62.33,1.05v4.99h6.22c.93,0,1.39.4,1.39,1.21v2.14Z"/><path class="cls-1" d="M508.71,95.05c0,.74-.26,1.1-.77,1.1h-3.66c-.28,0-.52-.09-.73-.26s-.32-.4-.35-.66l-1.52-13.19c-.19-1.66-.33-3.3-.43-4.92-.1-1.62-.2-3.31-.32-5.07l-.22-3.13c0-.06-.02-.09-.05-.09s-.06.02-.08.07l-.99,3.62c-.21.74-.43,1.47-.68,2.21l-6.88,18.73c-.07.22-.22.43-.44.62-.22.19-.44.29-.66.29h-3.46c-.46,0-.82-.29-1.1-.88-5.1-11.96-7.82-18.35-8.15-19.18-.33-.83-.62-1.62-.87-2.37l-.99-3.04s-.04-.07-.08-.07-.06.03-.08.09v3.57c0,3.12-.12,6.3-.37,9.55l-.99,13.21c-.03.24-.17.45-.41.64s-.5.29-.76.29h-3.04c-.35,0-.64-.15-.87-.46-.23-.31-.32-.68-.28-1.12l2.65-29.03c.1-1.22.25-1.99.44-2.32.34-.59.96-.88,1.85-.88h2.38c.72,0,1.22.1,1.5.29.51.34.96.98,1.35,1.92l9.51,23.16,8.32-23.19c.49-1.46,1.31-2.18,2.47-2.18h2.49c1.29,0,2.05.6,2.27,1.79.06.38.12.8.18,1.24l3.82,29.23c.03.15.04.3.04.46Z"/><path class="cls-1" d="M518.03,84.92l-.02.42c0,2.01.64,3.63,1.92,4.85,1.34,1.3,3.15,1.94,5.45,1.94,2.09,0,4.03-.63,5.82-1.88.34-.24.64-.35.9-.35.54,0,.96.27,1.24.82l.6,1.24c.13.29.2.61.2.95s-.15.69-.45,1.05c-.3.36-.69.69-1.18.98-.49.29-1.05.55-1.69.77-.64.22-1.3.4-1.97.55-1.35.29-2.77.44-4.24.44s-2.95-.28-4.45-.84c-1.49-.56-2.78-1.37-3.87-2.45-2.34-2.28-3.51-5.36-3.51-9.24,0-6.81,2.4-11.04,7.19-12.71,1.5-.52,3.04-.77,4.62-.77s2.93.17,4.04.51c1.11.34,2.07.84,2.88,1.5,1.71,1.4,2.56,3.35,2.56,5.85s-1,4.33-3,5.63c-1.75,1.13-4.06,1.7-6.93,1.7-1.77,0-3.8-.32-6.11-.95ZM528.89,78.48c0-2.1-1.41-3.15-4.24-3.15s-4.57.98-5.65,2.96c-.38.69-.63,1.54-.75,2.56,1.26.63,2.87.95,4.83.95,3.87,0,5.8-1.1,5.8-3.31Z"/><path class="cls-1" d="M544.94,90.08c0,1.04.37,1.57,1.1,1.57.24,0,.54-.07.9-.2.68-.25,1.09-.38,1.24-.38.34,0,.6.21.79.64l.68,1.57c.09.22.13.43.13.62,0,.34-.28.75-.84,1.23-1.12.93-2.58,1.39-4.39,1.39-3.29,0-4.94-2.2-4.94-6.6v-31.46c0-.4.12-.74.35-1.02.24-.28.51-.42.84-.42h2.96c.34,0,.62.14.84.42.22.28.33.62.33,1.02v31.61Z"/><path class="cls-1" d="M555.19,96.15c-.88,0-1.32-.57-1.32-1.7v-35.98c0-.4.11-.74.33-1.02.22-.28.5-.42.84-.42h3c.34,0,.62.14.85.42.23.28.34.62.34,1.02v16.13c1.88-2.59,4.57-3.88,8.07-3.88,3.21,0,5.66,1.18,7.37,3.55,1.54,2.15,2.32,5.01,2.32,8.58,0,4.18-1.01,7.54-3.02,10.08-1.99,2.5-4.5,3.75-7.54,3.75-1.65,0-3.17-.37-4.58-1.11-1.4-.74-2.54-1.88-3.41-3.41-.03.46-.07.91-.12,1.35-.05.44-.09.87-.1,1.28-.06.91-.65,1.37-1.79,1.37h-1.24ZM560.78,77.76c-.61.76-1.08,1.64-1.4,2.65-.32,1.01-.49,2.06-.49,3.15s.16,2.15.49,3.18c.32,1.02.77,1.94,1.35,2.75,1.26,1.76,2.83,2.65,4.7,2.65,2.09,0,3.65-.91,4.7-2.74.85-1.51,1.28-3.47,1.28-5.87,0-3.96-1.01-6.5-3.04-7.63-.71-.4-1.57-.6-2.58-.6s-1.95.22-2.8.66c-.85.44-1.58,1.04-2.19,1.8Z"/><path class="cls-1" d="M581.12,83.62c0-1.91.32-3.66.96-5.26.64-1.6,1.52-2.96,2.64-4.09,2.34-2.37,5.29-3.55,8.85-3.55,3.99,0,7.07,1.18,9.27,3.55,2.12,2.28,3.18,5.41,3.18,9.4s-1.2,7-3.6,9.44c-2.34,2.4-5.29,3.6-8.85,3.6-3.75,0-6.76-1.23-9.04-3.68-2.26-2.4-3.4-5.53-3.4-9.4ZM588.21,78.01c-.55.82-.95,1.74-1.2,2.78-.25,1.04-.38,2.09-.38,3.15s.14,2.09.43,3.07c.29.98.72,1.85,1.29,2.61,1.26,1.68,3.03,2.52,5.29,2.52s4.06-.82,5.25-2.47c1.06-1.44,1.59-3.4,1.59-5.89,0-3.72-1.22-6.29-3.66-7.7-.9-.52-1.98-.77-3.25-.77s-2.35.25-3.22.74c-.88.49-1.59,1.15-2.14,1.96Z"/><path class="cls-1" d="M633.59,94.65c0,1-.46,1.5-1.37,1.5h-.99c-.88,0-1.46-.35-1.74-1.06-.31-.81-.64-1.93-.99-3.37-.62,1.54-1.66,2.76-3.14,3.65-1.48.89-3.32,1.33-5.53,1.33-2.88,0-5.01-.9-6.38-2.7-1.37-1.8-2.05-4.46-2.05-7.97v-13.3c0-.41.13-.76.39-1.04.26-.28.62-.42,1.09-.42h2.43c.97,0,1.46.49,1.46,1.46v13.06c0,3.52.82,5.54,2.45,6.09.53.18,1.16.27,1.89.27s1.48-.17,2.25-.51c.77-.34,1.47-.79,2.08-1.35,1.38-1.28,2.07-2.74,2.07-4.39v-13.17c0-.41.12-.76.37-1.04.25-.28.65-.42,1.19-.42h2.32c.51,0,.89.14,1.12.42.24.28.35.63.35,1.04v13.79c0,3.1.22,5.6.66,7.5.04.16.07.38.07.64Z"/><path class="cls-1" d="M639.45,72.86c0-1.06.46-1.59,1.39-1.59h1.19c.81,0,1.38.35,1.72,1.06.49,1.03.84,2.45,1.06,4.26,0,.03.01.04.03.04s.07-.25.14-.75c.07-.5.29-1.11.64-1.84.35-.73.79-1.34,1.3-1.84,1.04-.98,2.32-1.48,3.84-1.48,1.69,0,2.87.28,3.53.84.31.25.43.6.37,1.04l-.35,2.78c-.09.75-.47,1.12-1.15,1.12-.32,0-.72-.07-1.19-.2-.91-.24-1.63-.35-2.16-.35s-1.09.23-1.68.7c-.59.46-1.1,1.04-1.52,1.73-.87,1.44-1.3,2.98-1.3,4.61v11.71c0,.41-.12.76-.35,1.04-.24.28-.57.42-1.02.42h-2.56c-.47,0-.83-.14-1.07-.42-.24-.28-.36-.63-.36-1.04v-15.2c0-2.59-.09-4.3-.25-5.13-.17-.83-.25-1.33-.25-1.51Z"/><path class="cls-1" d="M658.22,72.86c0-1.06.51-1.59,1.52-1.59h1.21c.82,0,1.38.31,1.68.93.41.88.76,2.04,1.06,3.49,1.32-2.41,3.29-3.96,5.91-4.63.82-.22,1.85-.33,3.08-.33s2.36.26,3.41.78c1.04.52,1.87,1.24,2.47,2.15,1.12,1.66,1.68,4.11,1.68,7.35v13.7c0,.41-.13.76-.4,1.04-.26.28-.65.42-1.17.42h-2.16c-.56,0-.97-.14-1.24-.42-.26-.28-.4-.63-.4-1.04v-13.72c0-3.77-1.38-5.65-4.15-5.65-1.62,0-3.1.68-4.43,2.03-1.43,1.46-2.14,3.15-2.14,5.07v12.26c0,.41-.12.76-.37,1.04-.25.28-.63.42-1.15.42h-2.27c-.51,0-.9-.14-1.17-.42-.26-.28-.4-.63-.4-1.04v-13.54c0-2.96-.1-5.02-.29-6.19-.19-1.17-.29-1.87-.29-2.11Z"/><path class="cls-1" d="M690.86,84.92l-.02.42c0,2.01.64,3.63,1.92,4.85,1.34,1.3,3.15,1.94,5.45,1.94,2.09,0,4.03-.63,5.82-1.88.34-.24.64-.35.9-.35.54,0,.96.27,1.24.82l.6,1.24c.13.29.2.61.2.95s-.15.69-.45,1.05c-.3.36-.69.69-1.18.98-.49.29-1.05.55-1.69.77-.64.22-1.3.4-1.97.55-1.35.29-2.77.44-4.24.44s-2.95-.28-4.45-.84c-1.49-.56-2.78-1.37-3.87-2.45-2.34-2.28-3.51-5.36-3.51-9.24,0-6.81,2.4-11.04,7.19-12.71,1.5-.52,3.04-.77,4.62-.77s2.93.17,4.04.51c1.11.34,2.07.84,2.88,1.5,1.71,1.4,2.56,3.35,2.56,5.85s-1,4.33-3,5.63c-1.75,1.13-4.06,1.7-6.93,1.7-1.77,0-3.8-.32-6.11-.95ZM701.71,78.48c0-2.1-1.41-3.15-4.24-3.15s-4.57.98-5.65,2.96c-.38.69-.63,1.54-.75,2.56,1.26.63,2.87.95,4.83.95,3.87,0,5.8-1.1,5.8-3.31Z"/></g></svg>